<svg width="500" height="500" viewBox="0 0 500 500" fill="none" xmlns="http://www.w3.org/2000/svg">
<path d="M377.7 228.66C377.7 228.66 381.17 216.91 392.94 192.05C409.05 158.05 385.89 119.79 340 99.84C286.2 76.47 217 85.18 167.09 99.46C125.83 111.28 108.78 142.14 101.36 172.9C97.59 188.49 96.88 204.43 94.5 220.23C91.34 241.29 84.44 262.68 78.4 283.31C71.11 308.23 63.87 336.37 74.17 363.31C105.9 446.17 280.26 449.75 348.87 411.4C387.66 389.73 401.95 357.86 388.87 320.67C379.16 293.12 369.74 255.52 377.7 228.66Z" fill="#8B82FF"/>
<path opacity="0.7" d="M377.7 228.66C377.7 228.66 381.17 216.91 392.94 192.05C409.05 158.05 385.89 119.79 340 99.84C286.2 76.47 217 85.18 167.09 99.46C125.83 111.28 108.78 142.14 101.36 172.9C97.59 188.49 96.88 204.43 94.5 220.23C91.34 241.29 84.44 262.68 78.4 283.31C71.11 308.23 63.87 336.37 74.17 363.31C105.9 446.17 280.26 449.75 348.87 411.4C387.66 389.73 401.95 357.86 388.87 320.67C379.16 293.12 369.74 255.52 377.7 228.66Z" fill="white"/>
<path opacity="0.3" d="M334.92 156.19C335.075 156.213 335.233 156.199 335.381 156.149C335.529 156.1 335.664 156.016 335.774 155.905C335.885 155.794 335.967 155.659 336.016 155.51C336.064 155.361 336.077 155.203 336.053 155.049C336.029 154.894 335.97 154.747 335.879 154.62C335.788 154.493 335.669 154.388 335.53 154.316C335.392 154.243 335.238 154.203 335.082 154.201C334.926 154.198 334.771 154.232 334.63 154.3L330.84 154.89L330.73 154.17L334.52 153.58C334.713 153.487 334.871 153.335 334.97 153.145C335.07 152.956 335.106 152.739 335.074 152.528C335.041 152.316 334.942 152.121 334.79 151.97C334.638 151.819 334.442 151.721 334.23 151.69L330.43 152.29L329.62 147.06L318.24 136.78L169.17 410.78L180.59 418.5L367.33 389.4L365.25 376L369.04 375.41C369.196 375.435 369.355 375.423 369.506 375.375C369.656 375.327 369.793 375.244 369.905 375.133C370.017 375.022 370.101 374.886 370.15 374.736C370.199 374.586 370.213 374.426 370.189 374.27C370.164 374.115 370.104 373.966 370.012 373.838C369.919 373.71 369.798 373.606 369.658 373.534C369.518 373.462 369.362 373.424 369.204 373.423C369.047 373.422 368.891 373.459 368.75 373.53L364.95 374.12L364.84 373.39L368.64 372.8C368.763 372.782 368.881 372.739 368.988 372.675C369.095 372.61 369.187 372.526 369.261 372.425C369.334 372.325 369.387 372.211 369.416 372.09C369.445 371.968 369.45 371.843 369.43 371.72C369.381 371.474 369.242 371.256 369.041 371.108C368.839 370.96 368.589 370.893 368.34 370.92L364.55 371.51L363.45 364.46L367.25 363.87C367.434 363.776 367.585 363.627 367.681 363.444C367.778 363.26 367.815 363.052 367.787 362.846C367.76 362.641 367.669 362.45 367.528 362.298C367.387 362.146 367.203 362.042 367 362L363.21 362.59L363.1 361.87L366.89 361.28C367.083 361.187 367.241 361.035 367.34 360.845C367.44 360.656 367.476 360.439 367.444 360.228C367.411 360.016 367.312 359.821 367.16 359.67C367.008 359.519 366.812 359.421 366.6 359.39L362.8 359.98L361.71 352.98L365.5 352.38C365.624 352.363 365.743 352.321 365.85 352.257C365.957 352.193 366.05 352.108 366.124 352.008C366.198 351.907 366.251 351.792 366.279 351.671C366.308 351.549 366.311 351.423 366.29 351.3C366.242 351.056 366.104 350.839 365.904 350.691C365.705 350.544 365.457 350.475 365.21 350.5L361.41 351.09L361.3 350.37L365.09 349.78C365.283 349.687 365.441 349.535 365.54 349.345C365.64 349.156 365.676 348.939 365.644 348.728C365.611 348.516 365.512 348.321 365.36 348.17C365.208 348.019 365.012 347.921 364.8 347.89L361.01 348.48L359.91 341.48L363.7 340.89C363.893 340.797 364.051 340.645 364.15 340.455C364.25 340.266 364.286 340.049 364.254 339.838C364.221 339.626 364.122 339.431 363.97 339.28C363.818 339.129 363.622 339.031 363.41 339L359.62 339.59L359.5 338.87L363.3 338.28C363.544 338.229 363.76 338.089 363.906 337.888C364.052 337.686 364.118 337.437 364.09 337.19C364.073 337.066 364.031 336.947 363.967 336.84C363.903 336.733 363.818 336.639 363.718 336.566C363.617 336.492 363.502 336.439 363.381 336.411C363.259 336.382 363.133 336.379 363.01 336.4L359.21 336.99L358.12 329.99L361.91 329.4C362.154 329.349 362.37 329.209 362.516 329.008C362.662 328.806 362.728 328.557 362.7 328.31C362.683 328.186 362.641 328.067 362.577 327.96C362.513 327.853 362.428 327.759 362.328 327.686C362.227 327.612 362.112 327.559 361.991 327.531C361.869 327.502 361.743 327.499 361.62 327.52L357.82 328.11L357.71 327.38L361.5 326.79C361.656 326.815 361.815 326.803 361.966 326.755C362.116 326.707 362.253 326.624 362.365 326.513C362.477 326.402 362.561 326.266 362.61 326.116C362.659 325.966 362.673 325.806 362.649 325.65C362.624 325.495 362.564 325.346 362.472 325.218C362.379 325.09 362.258 324.986 362.118 324.914C361.978 324.842 361.822 324.804 361.664 324.803C361.507 324.802 361.351 324.839 361.21 324.91L357.42 325.5L356.32 318.45L360.11 317.86C360.266 317.885 360.425 317.873 360.576 317.825C360.726 317.777 360.863 317.694 360.975 317.583C361.087 317.472 361.171 317.336 361.22 317.186C361.269 317.036 361.283 316.876 361.258 316.72C361.234 316.565 361.174 316.416 361.082 316.288C360.989 316.16 360.868 316.056 360.728 315.984C360.588 315.912 360.432 315.874 360.274 315.873C360.117 315.872 359.961 315.909 359.82 315.98L356.03 316.57L355.91 315.84L359.71 315.25C359.866 315.274 360.025 315.261 360.175 315.212C360.324 315.163 360.46 315.079 360.571 314.967C360.683 314.855 360.766 314.719 360.814 314.569C360.863 314.419 360.875 314.26 360.85 314.104C360.825 313.949 360.764 313.801 360.671 313.674C360.579 313.546 360.457 313.442 360.317 313.371C360.176 313.299 360.021 313.262 359.863 313.262C359.706 313.262 359.551 313.299 359.41 313.37L355.62 313.96L354.52 306.91L358.32 306.32C358.476 306.344 358.635 306.331 358.785 306.282C358.934 306.233 359.07 306.149 359.181 306.037C359.293 305.925 359.376 305.789 359.424 305.639C359.473 305.489 359.485 305.33 359.46 305.174C359.435 305.019 359.374 304.871 359.281 304.744C359.189 304.616 359.067 304.512 358.927 304.441C358.786 304.369 358.631 304.332 358.473 304.332C358.316 304.332 358.16 304.369 358.02 304.44L354.23 305.03L354.12 304.3L357.91 303.71C358.154 303.662 358.371 303.524 358.518 303.324C358.666 303.125 358.735 302.877 358.71 302.63C358.661 302.384 358.522 302.166 358.321 302.018C358.119 301.87 357.869 301.803 357.62 301.83L353.82 302.42L352.73 295.42L356.52 294.83C356.764 294.782 356.981 294.644 357.128 294.444C357.276 294.245 357.345 293.997 357.32 293.75C357.271 293.504 357.132 293.286 356.931 293.138C356.729 292.99 356.479 292.923 356.23 292.95L352.44 293.54L352.32 292.82L356.12 292.23C356.313 292.136 356.471 291.983 356.57 291.793C356.669 291.603 356.704 291.386 356.671 291.174C356.637 290.962 356.536 290.767 356.383 290.616C356.23 290.466 356.032 290.369 355.82 290.34L352.03 290.93L350.93 283.93L354.73 283.34C354.923 283.246 355.081 283.093 355.18 282.903C355.279 282.713 355.314 282.496 355.281 282.284C355.247 282.072 355.146 281.877 354.993 281.726C354.84 281.576 354.642 281.479 354.43 281.45L350.64 282.04L350.53 281.32L354.32 280.73C354.513 280.637 354.67 280.485 354.77 280.295C354.87 280.106 354.906 279.889 354.874 279.678C354.841 279.466 354.742 279.271 354.59 279.12C354.438 278.969 354.242 278.871 354.03 278.84L350.23 279.44L349.14 272.44L352.93 271.85C353.123 271.757 353.281 271.605 353.38 271.415C353.48 271.226 353.516 271.009 353.484 270.798C353.451 270.586 353.352 270.391 353.2 270.24C353.048 270.089 352.852 269.991 352.64 269.96L348.84 270.55L348.73 269.83L352.52 269.24C352.676 269.265 352.835 269.253 352.986 269.205C353.136 269.157 353.273 269.074 353.385 268.963C353.497 268.852 353.581 268.716 353.63 268.566C353.679 268.416 353.693 268.256 353.669 268.1C353.644 267.945 353.584 267.796 353.492 267.668C353.399 267.54 353.278 267.436 353.138 267.364C352.998 267.292 352.842 267.254 352.684 267.253C352.527 267.252 352.371 267.289 352.23 267.36L348.44 267.95L347.34 260.9L351.13 260.31C351.286 260.335 351.445 260.323 351.596 260.275C351.746 260.227 351.883 260.144 351.995 260.033C352.107 259.922 352.191 259.786 352.24 259.636C352.289 259.486 352.303 259.326 352.279 259.17C352.254 259.015 352.194 258.866 352.102 258.738C352.009 258.61 351.888 258.506 351.748 258.434C351.608 258.362 351.452 258.324 351.294 258.323C351.137 258.322 350.981 258.359 350.84 258.43L347.05 259.02L346.94 258.29L350.73 257.7C350.919 257.605 351.072 257.453 351.169 257.265C351.266 257.077 351.3 256.863 351.268 256.655C351.236 256.446 351.138 256.253 350.99 256.103C350.841 255.953 350.648 255.854 350.44 255.82L346.64 256.41L345.55 249.41L349.34 248.82C349.529 248.725 349.682 248.573 349.779 248.385C349.876 248.197 349.91 247.983 349.878 247.775C349.846 247.566 349.748 247.373 349.6 247.223C349.451 247.073 349.258 246.974 349.05 246.94L345.25 247.53L345.14 246.8L348.93 246.21C349.174 246.162 349.391 246.024 349.538 245.824C349.686 245.625 349.755 245.377 349.73 245.13C349.681 244.884 349.542 244.666 349.341 244.518C349.139 244.37 348.889 244.303 348.64 244.33L344.85 244.92L343.75 237.87L347.54 237.28C347.696 237.305 347.855 237.293 348.006 237.245C348.156 237.197 348.293 237.114 348.405 237.003C348.517 236.892 348.601 236.756 348.65 236.606C348.699 236.456 348.713 236.296 348.689 236.14C348.664 235.985 348.604 235.836 348.512 235.708C348.419 235.58 348.298 235.476 348.158 235.404C348.018 235.332 347.862 235.294 347.704 235.293C347.547 235.292 347.391 235.329 347.25 235.4L343.46 235.99L343.34 235.27L347.14 234.68C347.333 234.586 347.491 234.433 347.59 234.243C347.689 234.053 347.724 233.836 347.691 233.624C347.657 233.412 347.556 233.217 347.403 233.066C347.25 232.916 347.052 232.819 346.84 232.79L343.05 233.38L341.95 226.38L345.75 225.78C345.939 225.685 346.092 225.533 346.189 225.345C346.286 225.157 346.32 224.943 346.288 224.735C346.256 224.526 346.158 224.333 346.01 224.183C345.861 224.033 345.668 223.934 345.46 223.9L341.66 224.49L341.55 223.77L345.34 223.18C345.533 223.087 345.691 222.935 345.79 222.745C345.89 222.556 345.926 222.339 345.894 222.128C345.861 221.916 345.762 221.721 345.61 221.57C345.458 221.419 345.262 221.321 345.05 221.29L341.26 221.88L340.16 214.88L343.95 214.29C344.105 214.313 344.263 214.299 344.411 214.249C344.559 214.2 344.694 214.116 344.804 214.005C344.915 213.894 344.997 213.759 345.046 213.61C345.094 213.461 345.107 213.303 345.083 213.149C345.059 212.994 345 212.847 344.909 212.72C344.818 212.593 344.699 212.488 344.56 212.416C344.422 212.343 344.268 212.303 344.112 212.301C343.956 212.298 343.801 212.332 343.66 212.4L339.87 212.99L339.75 212.27L343.55 211.68C343.706 211.704 343.865 211.691 344.015 211.642C344.164 211.593 344.3 211.509 344.411 211.397C344.523 211.285 344.606 211.149 344.654 210.999C344.703 210.849 344.715 210.69 344.69 210.534C344.665 210.379 344.604 210.231 344.511 210.104C344.419 209.976 344.297 209.872 344.157 209.801C344.016 209.729 343.861 209.692 343.703 209.692C343.546 209.692 343.391 209.729 343.25 209.8L339.46 210.39L338.36 203.39L342.16 202.8C342.349 202.704 342.502 202.551 342.598 202.362C342.694 202.174 342.728 201.96 342.695 201.751C342.662 201.542 342.563 201.349 342.413 201.199C342.263 201.05 342.069 200.952 341.86 200.92L338.07 201.51L337.96 200.78L341.75 200.19C341.906 200.215 342.065 200.203 342.216 200.155C342.366 200.107 342.503 200.024 342.615 199.913C342.727 199.802 342.811 199.666 342.86 199.516C342.909 199.366 342.923 199.206 342.899 199.05C342.874 198.895 342.814 198.746 342.722 198.618C342.629 198.49 342.508 198.386 342.368 198.314C342.228 198.242 342.072 198.204 341.914 198.203C341.757 198.202 341.601 198.239 341.46 198.31L337.66 198.9L336.57 191.85L340.36 191.26C340.516 191.285 340.675 191.273 340.826 191.225C340.976 191.177 341.113 191.094 341.225 190.983C341.337 190.872 341.421 190.736 341.47 190.586C341.519 190.436 341.533 190.276 341.508 190.12C341.484 189.965 341.424 189.816 341.332 189.688C341.239 189.56 341.118 189.456 340.978 189.384C340.838 189.312 340.682 189.274 340.524 189.273C340.367 189.272 340.211 189.309 340.07 189.38L336.27 189.97L336.16 189.24L339.96 188.65C340.149 188.554 340.302 188.401 340.398 188.212C340.494 188.024 340.528 187.81 340.495 187.601C340.462 187.392 340.363 187.199 340.213 187.049C340.063 186.9 339.869 186.802 339.66 186.77L335.87 187.36L334.77 180.31L338.57 179.72C338.759 179.624 338.912 179.471 339.008 179.282C339.104 179.094 339.138 178.88 339.105 178.671C339.072 178.462 338.973 178.269 338.823 178.119C338.673 177.97 338.479 177.872 338.27 177.84L334.48 178.43L334.37 177.7L338.16 177.11C338.404 177.062 338.621 176.924 338.768 176.724C338.916 176.525 338.985 176.277 338.96 176.03C338.911 175.784 338.772 175.566 338.571 175.418C338.369 175.27 338.119 175.203 337.87 175.23L334.07 175.82L332.98 168.77L336.77 168.18C337.014 168.132 337.231 167.994 337.378 167.794C337.526 167.595 337.595 167.347 337.57 167.1C337.521 166.854 337.382 166.636 337.181 166.488C336.979 166.34 336.729 166.273 336.48 166.3L332.68 166.89L332.57 166.17L336.36 165.58C336.553 165.487 336.711 165.335 336.81 165.145C336.91 164.956 336.946 164.739 336.914 164.528C336.881 164.316 336.782 164.121 336.63 163.97C336.478 163.819 336.282 163.721 336.07 163.69L332.28 164.28L331.18 157.28L334.92 156.19Z" fill="#0F0000"/>
<path d="M175.2 413.39L348.35 386.45L309.71 138.1L136.55 165.1C135.5 165.263 134.492 165.632 133.585 166.185C132.677 166.737 131.888 167.464 131.261 168.322C130.634 169.18 130.182 170.153 129.932 171.186C129.681 172.218 129.636 173.29 129.8 174.34L166 406.64C166.328 408.754 167.48 410.651 169.205 411.917C170.929 413.182 173.085 413.712 175.2 413.39Z" fill="#F1B3E3" stroke="#263238" stroke-miterlimit="10" stroke-linecap="round"/>
<path d="M178.415 404.709L168.534 406.247C167.84 406.356 167.131 406.183 166.564 405.769C165.996 405.354 165.616 404.731 165.508 404.037L162.031 381.706C161.923 381.011 162.095 380.302 162.51 379.735C162.925 379.167 163.548 378.788 164.242 378.68L174.123 377.141L178.415 404.709Z" fill="white" stroke="#263238" stroke-miterlimit="10" stroke-linecap="round"/>
<path d="M173.912 375.73L164.031 377.268C163.336 377.377 162.627 377.204 162.06 376.79C161.492 376.375 161.113 375.752 161.005 375.058L157.528 352.727C157.42 352.032 157.592 351.323 158.006 350.756C158.421 350.188 159.044 349.809 159.738 349.701L169.619 348.162L173.912 375.73Z" fill="#8B82FF" stroke="#263238" stroke-miterlimit="10" stroke-linecap="round"/>
<path d="M169.39 346.702L159.509 348.24C158.815 348.348 158.106 348.176 157.539 347.761C156.971 347.347 156.591 346.724 156.483 346.029L153.006 323.698C152.898 323.004 153.07 322.295 153.485 321.727C153.9 321.16 154.523 320.78 155.217 320.672L165.098 319.134L169.39 346.702Z" fill="white" stroke="#263238" stroke-miterlimit="10" stroke-linecap="round"/>
<path d="M164.888 317.732L155.007 319.271C154.313 319.379 153.604 319.207 153.036 318.792C152.469 318.378 152.089 317.755 151.981 317.06L148.504 294.729C148.396 294.035 148.568 293.326 148.983 292.758C149.398 292.191 150.021 291.811 150.715 291.703L160.596 290.165L164.888 317.732Z" fill="#8B82FF" stroke="#263238" stroke-miterlimit="10" stroke-linecap="round"/>
<path d="M146.24 262.72L152.15 261.8L137.08 165L318.24 136.81L356.88 385.15L175.73 413.31L156.44 289.37L150.53 290.29C149.839 290.393 149.136 290.219 148.574 289.805C148.011 289.39 147.636 288.77 147.53 288.08L144 265.75C143.946 265.404 143.961 265.05 144.045 264.71C144.129 264.37 144.279 264.049 144.488 263.767C144.696 263.486 144.958 263.248 145.259 263.068C145.56 262.888 145.893 262.77 146.24 262.72V262.72Z" fill="white" stroke="#263238" stroke-miterlimit="10" stroke-linecap="round"/>
<path d="M165.61 217.88L166.21 231.45L233.81 220.42L232.04 209.06L165.61 217.88Z" fill="#8B82FF"/>
<path d="M308.17 152C308.27 152.695 308.574 153.345 309.045 153.867C309.515 154.388 310.13 154.758 310.811 154.929C311.492 155.101 312.208 155.066 312.87 154.828C313.531 154.591 314.106 154.163 314.523 153.598C314.94 153.032 315.179 152.356 315.21 151.654C315.242 150.953 315.064 150.258 314.699 149.657C314.334 149.057 313.799 148.579 313.162 148.284C312.524 147.989 311.814 147.89 311.12 148C310.201 148.146 309.377 148.647 308.825 149.395C308.273 150.144 308.038 151.079 308.17 152V152Z" fill="#263238" stroke="#263238" stroke-miterlimit="10" stroke-linecap="round"/>
<path d="M312 150.9L322.58 149.25C322.824 149.199 323.04 149.059 323.186 148.858C323.332 148.656 323.398 148.407 323.37 148.16V148.16C323.319 147.916 323.179 147.7 322.978 147.554C322.776 147.408 322.527 147.342 322.28 147.37L311.74 149C311.494 149.049 311.276 149.187 311.128 149.389C310.98 149.591 310.913 149.841 310.94 150.09C310.986 150.332 311.12 150.548 311.315 150.698C311.511 150.847 311.755 150.919 312 150.9Z" fill="white" stroke="#263238" stroke-miterlimit="10" stroke-linecap="round"/>
<path d="M312.44 153.5L323 151.86C323.246 151.811 323.464 151.672 323.612 151.471C323.76 151.269 323.827 151.019 323.8 150.77C323.751 150.524 323.613 150.306 323.411 150.158C323.209 150.01 322.959 149.943 322.71 149.97L312.13 151.62C311.886 151.671 311.67 151.811 311.524 152.012C311.378 152.214 311.312 152.463 311.34 152.71V152.71C311.391 152.956 311.532 153.173 311.736 153.32C311.94 153.466 312.191 153.53 312.44 153.5Z" fill="white" stroke="#263238" stroke-miterlimit="10" stroke-linecap="round"/>
<path d="M310 163.53C310.098 164.224 310.4 164.872 310.867 165.395C311.334 165.917 311.946 166.288 312.624 166.462C313.303 166.637 314.018 166.606 314.679 166.374C315.34 166.141 315.917 165.718 316.337 165.158C316.757 164.597 317.002 163.925 317.04 163.225C317.078 162.526 316.907 161.831 316.55 161.228C316.193 160.626 315.665 160.143 315.033 159.84C314.401 159.538 313.693 159.43 313 159.53C312.072 159.664 311.235 160.16 310.673 160.91C310.111 161.66 309.869 162.602 310 163.53Z" fill="#263238" stroke="#263238" stroke-miterlimit="10" stroke-linecap="round"/>
<path d="M313.83 162.43L324.4 160.79C324.646 160.741 324.864 160.603 325.012 160.401C325.16 160.199 325.227 159.949 325.2 159.7C325.151 159.454 325.012 159.236 324.811 159.088C324.609 158.94 324.359 158.873 324.11 158.9L313.53 160.55C313.286 160.601 313.07 160.741 312.924 160.942C312.778 161.144 312.712 161.393 312.74 161.64V161.64C312.791 161.884 312.931 162.1 313.132 162.246C313.334 162.392 313.583 162.458 313.83 162.43Z" fill="white" stroke="#263238" stroke-miterlimit="10" stroke-linecap="round"/>
<path d="M314.23 165L324.81 163.36C325.054 163.309 325.27 163.169 325.416 162.968C325.562 162.766 325.628 162.517 325.6 162.27V162.27C325.551 162.024 325.412 161.806 325.211 161.658C325.009 161.51 324.759 161.443 324.51 161.47L313.94 163.12C313.694 163.169 313.476 163.307 313.328 163.509C313.18 163.711 313.113 163.961 313.14 164.21C313.191 164.454 313.331 164.67 313.532 164.816C313.734 164.962 313.983 165.028 314.23 165Z" fill="white" stroke="#263238" stroke-miterlimit="10" stroke-linecap="round"/>
<path d="M311.76 175.07C311.86 175.765 312.164 176.415 312.635 176.937C313.105 177.458 313.72 177.828 314.401 178C315.082 178.171 315.798 178.136 316.46 177.898C317.121 177.661 317.696 177.233 318.113 176.668C318.53 176.102 318.769 175.426 318.8 174.724C318.832 174.023 318.654 173.328 318.289 172.727C317.924 172.127 317.389 171.649 316.752 171.354C316.114 171.059 315.404 170.96 314.71 171.07C313.791 171.216 312.967 171.717 312.415 172.465C311.863 173.214 311.628 174.149 311.76 175.07Z" fill="#263238" stroke="#263238" stroke-miterlimit="10" stroke-linecap="round"/>
<path d="M315.62 174L326.2 172.36C326.444 172.309 326.66 172.169 326.806 171.968C326.952 171.766 327.018 171.517 326.99 171.27V171.27C326.941 171.024 326.803 170.806 326.601 170.658C326.399 170.51 326.149 170.443 325.9 170.47L315.33 172.12C315.084 172.169 314.866 172.307 314.718 172.509C314.57 172.711 314.503 172.961 314.53 173.21C314.581 173.454 314.721 173.67 314.922 173.816C315.124 173.962 315.373 174.028 315.62 174Z" fill="white" stroke="#263238" stroke-miterlimit="10" stroke-linecap="round"/>
<path d="M316 176.58L326.57 174.93C326.814 174.882 327.031 174.744 327.178 174.544C327.326 174.345 327.395 174.097 327.37 173.85C327.321 173.604 327.182 173.386 326.981 173.238C326.779 173.09 326.529 173.023 326.28 173.05L315.71 174.7C315.466 174.748 315.249 174.886 315.101 175.086C314.954 175.285 314.885 175.533 314.91 175.78C314.959 176.026 315.097 176.244 315.299 176.392C315.501 176.54 315.751 176.607 316 176.58V176.58Z" fill="white" stroke="#263238" stroke-miterlimit="10" stroke-linecap="round"/>
<path d="M313.55 186.61C313.648 187.304 313.95 187.952 314.417 188.475C314.884 188.997 315.496 189.368 316.174 189.542C316.853 189.717 317.568 189.686 318.229 189.454C318.89 189.221 319.467 188.798 319.887 188.238C320.307 187.677 320.552 187.005 320.59 186.305C320.628 185.606 320.457 184.911 320.1 184.308C319.743 183.706 319.215 183.223 318.583 182.92C317.951 182.618 317.243 182.51 316.55 182.61C315.622 182.744 314.785 183.24 314.223 183.99C313.661 184.74 313.419 185.682 313.55 186.61Z" fill="#263238" stroke="#263238" stroke-miterlimit="10" stroke-linecap="round"/>
<path d="M317.42 185.51L328 183.86C328.244 183.812 328.461 183.674 328.608 183.474C328.756 183.275 328.825 183.027 328.8 182.78C328.751 182.534 328.612 182.316 328.411 182.168C328.209 182.02 327.959 181.953 327.71 181.98L317.13 183.63C317.007 183.648 316.889 183.691 316.782 183.755C316.675 183.82 316.583 183.904 316.509 184.005C316.436 184.105 316.383 184.219 316.354 184.34C316.325 184.461 316.32 184.587 316.34 184.71V184.71C316.388 184.954 316.526 185.171 316.726 185.318C316.925 185.466 317.173 185.535 317.42 185.51Z" fill="white" stroke="#263238" stroke-miterlimit="10" stroke-linecap="round"/>
<path d="M317.82 188.12L328.4 186.47C328.524 186.452 328.643 186.409 328.751 186.344C328.858 186.279 328.951 186.193 329.025 186.092C329.098 185.99 329.151 185.875 329.179 185.752C329.208 185.63 329.211 185.504 329.19 185.38V185.38C329.172 185.257 329.129 185.139 329.065 185.032C329 184.925 328.916 184.833 328.815 184.759C328.715 184.686 328.601 184.633 328.48 184.604C328.358 184.575 328.233 184.57 328.11 184.59L317.53 186.23C317.286 186.281 317.07 186.421 316.924 186.622C316.778 186.824 316.712 187.073 316.74 187.32V187.32C316.788 187.564 316.926 187.781 317.126 187.929C317.325 188.076 317.573 188.145 317.82 188.12Z" fill="white" stroke="#263238" stroke-miterlimit="10" stroke-linecap="round"/>
<path d="M315.35 198.15C315.45 198.845 315.754 199.495 316.225 200.017C316.695 200.538 317.31 200.908 317.991 201.079C318.672 201.251 319.388 201.216 320.05 200.978C320.711 200.741 321.286 200.313 321.703 199.748C322.12 199.182 322.359 198.506 322.39 197.804C322.422 197.103 322.244 196.408 321.879 195.807C321.514 195.207 320.979 194.729 320.342 194.434C319.704 194.139 318.994 194.04 318.3 194.15C317.381 194.296 316.557 194.797 316.005 195.545C315.453 196.294 315.218 197.229 315.35 198.15V198.15Z" fill="#263238" stroke="#263238" stroke-miterlimit="10" stroke-linecap="round"/>
<path d="M319.21 197.05L329.79 195.4C330.034 195.349 330.25 195.209 330.396 195.008C330.542 194.806 330.608 194.557 330.58 194.31C330.562 194.187 330.519 194.069 330.455 193.962C330.39 193.855 330.306 193.763 330.205 193.689C330.105 193.616 329.991 193.563 329.869 193.534C329.748 193.505 329.623 193.5 329.5 193.52L318.92 195.16C318.676 195.211 318.46 195.351 318.314 195.552C318.168 195.754 318.102 196.003 318.13 196.25V196.25C318.178 196.494 318.316 196.711 318.516 196.858C318.715 197.006 318.963 197.075 319.21 197.05Z" fill="white" stroke="#263238" stroke-miterlimit="10" stroke-linecap="round"/>
<path d="M319.62 199.66L330.19 198C330.436 197.951 330.654 197.813 330.802 197.611C330.95 197.409 331.017 197.159 330.99 196.91V196.91C330.939 196.666 330.799 196.45 330.598 196.304C330.396 196.158 330.147 196.092 329.9 196.12L319.33 197.76C319.084 197.809 318.866 197.947 318.718 198.149C318.57 198.351 318.503 198.601 318.53 198.85C318.576 199.097 318.714 199.318 318.916 199.468C319.118 199.619 319.37 199.687 319.62 199.66Z" fill="white" stroke="#263238" stroke-miterlimit="10" stroke-linecap="round"/>
<path d="M317.14 209.69C317.248 210.38 317.557 211.022 318.028 211.537C318.5 212.052 319.113 212.415 319.791 212.582C320.469 212.749 321.181 212.712 321.838 212.475C322.495 212.238 323.067 211.813 323.482 211.252C323.898 210.691 324.138 210.02 324.173 209.322C324.208 208.625 324.036 207.933 323.679 207.333C323.322 206.734 322.795 206.253 322.166 205.952C321.536 205.65 320.831 205.542 320.14 205.64C319.676 205.706 319.229 205.863 318.826 206.103C318.423 206.343 318.072 206.661 317.793 207.038C317.514 207.415 317.313 207.843 317.2 208.298C317.088 208.754 317.068 209.227 317.14 209.69V209.69Z" fill="#263238" stroke="#263238" stroke-miterlimit="10" stroke-linecap="round"/>
<path d="M321 208.59L331.57 206.94C331.816 206.891 332.034 206.753 332.182 206.551C332.33 206.349 332.397 206.099 332.37 205.85V205.85C332.319 205.606 332.179 205.39 331.978 205.244C331.776 205.098 331.527 205.032 331.28 205.06L320.71 206.7C320.464 206.749 320.246 206.887 320.098 207.089C319.95 207.291 319.883 207.541 319.91 207.79C319.959 208.036 320.098 208.254 320.299 208.402C320.501 208.55 320.751 208.617 321 208.59V208.59Z" fill="white" stroke="#263238" stroke-miterlimit="10" stroke-linecap="round"/>
<path d="M321.42 211.19L332 209.55C332.246 209.501 332.464 209.363 332.612 209.161C332.76 208.959 332.827 208.709 332.8 208.46C332.751 208.214 332.613 207.996 332.411 207.848C332.209 207.7 331.959 207.633 331.71 207.66L321.13 209.31C320.886 209.361 320.67 209.501 320.524 209.702C320.378 209.904 320.312 210.153 320.34 210.4V210.4C320.391 210.642 320.529 210.856 320.728 211.002C320.928 211.148 321.174 211.215 321.42 211.19Z" fill="white" stroke="#263238" stroke-miterlimit="10" stroke-linecap="round"/>
<path d="M318.94 221.22C319.04 221.915 319.344 222.565 319.815 223.087C320.285 223.608 320.9 223.978 321.581 224.15C322.262 224.321 322.978 224.286 323.64 224.048C324.301 223.811 324.876 223.383 325.293 222.818C325.71 222.252 325.949 221.576 325.98 220.874C326.012 220.173 325.834 219.478 325.469 218.877C325.104 218.277 324.569 217.799 323.932 217.504C323.294 217.209 322.584 217.11 321.89 217.22C320.971 217.366 320.147 217.867 319.595 218.615C319.043 219.364 318.808 220.299 318.94 221.22V221.22Z" fill="#263238" stroke="#263238" stroke-miterlimit="10" stroke-linecap="round"/>
<path d="M322.8 220.12L333.38 218.48C333.626 218.431 333.844 218.293 333.992 218.091C334.14 217.889 334.207 217.639 334.18 217.39C334.129 217.146 333.989 216.93 333.788 216.784C333.586 216.638 333.337 216.572 333.09 216.6L322.51 218.24C322.266 218.291 322.05 218.431 321.904 218.632C321.758 218.834 321.692 219.083 321.72 219.33V219.33C321.737 219.454 321.779 219.573 321.843 219.68C321.907 219.787 321.992 219.881 322.092 219.954C322.193 220.028 322.308 220.081 322.429 220.109C322.551 220.138 322.677 220.141 322.8 220.12V220.12Z" fill="white" stroke="#263238" stroke-miterlimit="10" stroke-linecap="round"/>
<path d="M323.21 222.73L333.79 221.09C334.034 221.039 334.25 220.899 334.396 220.698C334.542 220.496 334.608 220.247 334.58 220C334.531 219.754 334.392 219.536 334.191 219.388C333.989 219.24 333.739 219.173 333.49 219.2L322.92 220.85C322.674 220.899 322.456 221.037 322.308 221.239C322.16 221.441 322.093 221.691 322.12 221.94V221.94C322.171 222.184 322.311 222.4 322.512 222.546C322.714 222.692 322.963 222.758 323.21 222.73V222.73Z" fill="white" stroke="#263238" stroke-miterlimit="10" stroke-linecap="round"/>
<path d="M320.74 232.76C320.84 233.455 321.144 234.105 321.615 234.627C322.085 235.148 322.7 235.518 323.381 235.689C324.062 235.861 324.778 235.826 325.44 235.588C326.101 235.351 326.676 234.923 327.093 234.358C327.51 233.792 327.749 233.116 327.78 232.414C327.812 231.713 327.634 231.018 327.269 230.417C326.904 229.817 326.369 229.339 325.732 229.044C325.094 228.749 324.384 228.65 323.69 228.76C322.771 228.906 321.947 229.407 321.395 230.155C320.843 230.904 320.608 231.839 320.74 232.76V232.76Z" fill="#263238" stroke="#263238" stroke-miterlimit="10" stroke-linecap="round"/>
<path d="M324.6 231.66L335.18 230C335.424 229.949 335.64 229.809 335.786 229.608C335.932 229.406 335.998 229.157 335.97 228.91V228.91C335.921 228.664 335.782 228.446 335.581 228.298C335.379 228.15 335.129 228.083 334.88 228.11L324.31 229.76C324.064 229.809 323.846 229.947 323.698 230.149C323.55 230.351 323.483 230.601 323.51 230.85C323.556 231.097 323.694 231.318 323.896 231.468C324.098 231.619 324.35 231.687 324.6 231.66Z" fill="white" stroke="#263238" stroke-miterlimit="10" stroke-linecap="round"/>
<path d="M325 234.27L335.57 232.62C335.814 232.572 336.031 232.434 336.178 232.234C336.326 232.035 336.395 231.787 336.37 231.54C336.321 231.294 336.182 231.076 335.981 230.928C335.779 230.78 335.529 230.713 335.28 230.74L324.7 232.39C324.456 232.441 324.24 232.581 324.094 232.782C323.948 232.984 323.882 233.233 323.91 233.48C323.961 233.724 324.101 233.94 324.302 234.086C324.504 234.232 324.753 234.298 325 234.27Z" fill="white" stroke="#263238" stroke-miterlimit="10" stroke-linecap="round"/>
<path d="M322.53 244.3C322.628 244.994 322.93 245.642 323.397 246.165C323.864 246.687 324.476 247.058 325.154 247.232C325.833 247.407 326.548 247.376 327.209 247.144C327.87 246.911 328.447 246.488 328.867 245.928C329.287 245.367 329.532 244.695 329.57 243.995C329.608 243.296 329.437 242.601 329.08 241.998C328.723 241.396 328.195 240.913 327.563 240.61C326.931 240.308 326.223 240.2 325.53 240.3C324.602 240.434 323.765 240.93 323.203 241.68C322.641 242.43 322.399 243.372 322.53 244.3Z" fill="#263238" stroke="#263238" stroke-miterlimit="10" stroke-linecap="round"/>
<path d="M326.4 243.2L337 241.56C337.246 241.511 337.464 241.372 337.612 241.171C337.76 240.969 337.827 240.719 337.8 240.47C337.751 240.224 337.613 240.006 337.411 239.858C337.209 239.71 336.959 239.643 336.71 239.67L326.13 241.32C325.886 241.371 325.67 241.511 325.524 241.712C325.378 241.914 325.312 242.163 325.34 242.41V242.41C325.39 242.648 325.526 242.86 325.721 243.005C325.916 243.151 326.157 243.22 326.4 243.2V243.2Z" fill="white" stroke="#263238" stroke-miterlimit="10" stroke-linecap="round"/>
<path d="M326.8 245.81L337.38 244.16C337.624 244.109 337.84 243.969 337.986 243.768C338.132 243.566 338.198 243.317 338.17 243.07C338.119 242.826 337.979 242.61 337.778 242.464C337.576 242.318 337.327 242.252 337.08 242.28L326.51 243.93C326.266 243.978 326.049 244.116 325.901 244.316C325.754 244.515 325.685 244.763 325.71 245.01C325.759 245.256 325.897 245.474 326.099 245.622C326.301 245.77 326.551 245.837 326.8 245.81V245.81Z" fill="white" stroke="#263238" stroke-miterlimit="10" stroke-linecap="round"/>
<path d="M324.33 255.84C324.43 256.535 324.734 257.185 325.205 257.707C325.675 258.228 326.29 258.598 326.971 258.769C327.652 258.941 328.368 258.906 329.03 258.668C329.691 258.431 330.266 258.003 330.683 257.438C331.1 256.872 331.339 256.196 331.37 255.494C331.402 254.793 331.224 254.098 330.859 253.497C330.494 252.897 329.959 252.419 329.322 252.124C328.684 251.829 327.974 251.73 327.28 251.84C326.361 251.986 325.537 252.487 324.985 253.235C324.433 253.984 324.198 254.919 324.33 255.84V255.84Z" fill="#263238" stroke="#263238" stroke-miterlimit="10" stroke-linecap="round"/>
<path d="M328.19 254.74L338.77 253.09C339.014 253.039 339.23 252.899 339.376 252.698C339.522 252.496 339.588 252.247 339.56 252C339.509 251.756 339.369 251.54 339.168 251.394C338.966 251.248 338.717 251.182 338.47 251.21L327.9 252.86C327.656 252.908 327.439 253.046 327.291 253.246C327.144 253.445 327.075 253.693 327.1 253.94C327.149 254.186 327.287 254.404 327.489 254.552C327.691 254.7 327.941 254.767 328.19 254.74V254.74Z" fill="white" stroke="#263238" stroke-miterlimit="10" stroke-linecap="round"/>
<path d="M328.6 257.35L339.17 255.7C339.416 255.651 339.634 255.513 339.782 255.311C339.93 255.109 339.997 254.859 339.97 254.61V254.61C339.919 254.366 339.779 254.15 339.578 254.004C339.376 253.858 339.127 253.792 338.88 253.82L328.3 255.46C328.056 255.511 327.84 255.651 327.694 255.852C327.548 256.054 327.482 256.303 327.51 256.55C327.559 256.796 327.697 257.014 327.899 257.162C328.101 257.31 328.351 257.377 328.6 257.35V257.35Z" fill="white" stroke="#263238" stroke-miterlimit="10" stroke-linecap="round"/>
<path d="M326.12 267.38C326.227 268.07 326.537 268.712 327.008 269.227C327.48 269.742 328.093 270.105 328.771 270.272C329.449 270.439 330.161 270.402 330.818 270.165C331.475 269.928 332.047 269.503 332.462 268.942C332.878 268.381 333.118 267.71 333.153 267.012C333.188 266.315 333.016 265.623 332.659 265.023C332.302 264.424 331.775 263.943 331.146 263.642C330.516 263.34 329.811 263.232 329.12 263.33C328.656 263.396 328.209 263.553 327.806 263.793C327.403 264.033 327.052 264.351 326.773 264.728C326.494 265.105 326.293 265.533 326.18 265.988C326.068 266.444 326.048 266.917 326.12 267.38V267.38Z" fill="#263238" stroke="#263238" stroke-miterlimit="10" stroke-linecap="round"/>
<path d="M330 266.28L340.57 264.63C340.816 264.581 341.034 264.442 341.182 264.241C341.33 264.039 341.397 263.789 341.37 263.54V263.54C341.319 263.296 341.179 263.08 340.978 262.934C340.776 262.788 340.527 262.722 340.28 262.75L329.7 264.39C329.456 264.441 329.24 264.581 329.094 264.782C328.948 264.984 328.882 265.233 328.91 265.48V265.48C328.959 265.726 329.097 265.944 329.299 266.092C329.501 266.24 329.751 266.307 330 266.28V266.28Z" fill="white" stroke="#263238" stroke-miterlimit="10" stroke-linecap="round"/>
<path d="M330.39 268.88L341 267.24C341.244 267.189 341.46 267.049 341.606 266.848C341.752 266.646 341.818 266.397 341.79 266.15V266.15C341.773 266.026 341.731 265.907 341.667 265.8C341.603 265.693 341.518 265.599 341.418 265.526C341.317 265.452 341.202 265.399 341.081 265.371C340.959 265.342 340.833 265.339 340.71 265.36L330.1 267C329.854 267.049 329.636 267.188 329.488 267.389C329.34 267.591 329.273 267.841 329.3 268.09C329.351 268.334 329.491 268.55 329.692 268.696C329.894 268.842 330.143 268.908 330.39 268.88Z" fill="white" stroke="#263238" stroke-miterlimit="10" stroke-linecap="round"/>
<path d="M327.92 278.91C328.02 279.605 328.324 280.255 328.795 280.777C329.265 281.298 329.88 281.668 330.561 281.84C331.242 282.011 331.958 281.976 332.62 281.738C333.281 281.501 333.856 281.073 334.273 280.508C334.69 279.942 334.929 279.266 334.96 278.564C334.992 277.863 334.814 277.168 334.449 276.567C334.084 275.967 333.549 275.489 332.912 275.194C332.274 274.899 331.564 274.8 330.87 274.91C329.951 275.056 329.127 275.557 328.575 276.305C328.023 277.054 327.788 277.989 327.92 278.91V278.91Z" fill="#263238" stroke="#263238" stroke-miterlimit="10" stroke-linecap="round"/>
<path d="M331.78 277.82L342.36 276.17C342.604 276.119 342.82 275.979 342.966 275.778C343.112 275.576 343.178 275.327 343.15 275.08C343.099 274.838 342.961 274.624 342.762 274.478C342.562 274.332 342.316 274.265 342.07 274.29L331.49 275.93C331.244 275.979 331.026 276.118 330.878 276.319C330.73 276.521 330.663 276.771 330.69 277.02C330.739 277.266 330.877 277.484 331.079 277.632C331.281 277.78 331.531 277.847 331.78 277.82Z" fill="white" stroke="#263238" stroke-miterlimit="10" stroke-linecap="round"/>
<path d="M332.19 280.42L342.76 278.78C343.006 278.731 343.224 278.593 343.372 278.391C343.52 278.189 343.587 277.939 343.56 277.69C343.511 277.444 343.373 277.226 343.171 277.078C342.969 276.93 342.719 276.863 342.47 276.89L331.9 278.54C331.654 278.589 331.436 278.728 331.288 278.929C331.14 279.131 331.073 279.381 331.1 279.63V279.63C331.151 279.874 331.291 280.09 331.492 280.236C331.694 280.382 331.943 280.448 332.19 280.42V280.42Z" fill="white" stroke="#263238" stroke-miterlimit="10" stroke-linecap="round"/>
<path d="M329.71 290.45C329.808 291.144 330.11 291.792 330.577 292.315C331.044 292.837 331.656 293.208 332.334 293.382C333.013 293.557 333.728 293.526 334.389 293.294C335.05 293.061 335.627 292.638 336.047 292.078C336.467 291.517 336.712 290.845 336.75 290.145C336.788 289.446 336.617 288.751 336.26 288.148C335.903 287.546 335.375 287.063 334.743 286.76C334.111 286.458 333.403 286.35 332.71 286.45C331.783 286.586 330.948 287.083 330.386 287.832C329.824 288.581 329.581 289.522 329.71 290.45V290.45Z" fill="#263238" stroke="#263238" stroke-miterlimit="10" stroke-linecap="round"/>
<path d="M333.58 289.35L344.15 287.71C344.396 287.661 344.614 287.523 344.762 287.321C344.91 287.119 344.977 286.869 344.95 286.62C344.901 286.374 344.762 286.156 344.561 286.008C344.359 285.86 344.109 285.793 343.86 285.82L333.29 287.47C333.044 287.519 332.826 287.658 332.678 287.859C332.53 288.061 332.463 288.311 332.49 288.56V288.56C332.541 288.804 332.681 289.02 332.882 289.166C333.084 289.312 333.333 289.378 333.58 289.35Z" fill="white" stroke="#263238" stroke-miterlimit="10" stroke-linecap="round"/>
<path d="M334 292L344.58 290.36C344.824 290.309 345.04 290.169 345.186 289.968C345.332 289.766 345.398 289.517 345.37 289.27C345.322 289.026 345.184 288.809 344.984 288.661C344.785 288.514 344.537 288.445 344.29 288.47L333.71 290.12C333.466 290.171 333.25 290.311 333.104 290.512C332.958 290.714 332.892 290.963 332.92 291.21V291.21C332.938 291.333 332.981 291.451 333.045 291.558C333.11 291.665 333.194 291.757 333.295 291.831C333.395 291.904 333.509 291.957 333.63 291.986C333.751 292.015 333.877 292.02 334 292V292Z" fill="white" stroke="#263238" stroke-miterlimit="10" stroke-linecap="round"/>
<path d="M331.51 302C331.61 302.695 331.914 303.345 332.385 303.867C332.855 304.388 333.47 304.758 334.151 304.93C334.832 305.101 335.548 305.066 336.21 304.828C336.871 304.591 337.446 304.163 337.863 303.598C338.28 303.032 338.519 302.356 338.55 301.654C338.582 300.953 338.404 300.258 338.039 299.657C337.674 299.057 337.139 298.579 336.502 298.284C335.864 297.989 335.154 297.89 334.46 298C333.541 298.146 332.717 298.647 332.165 299.395C331.613 300.144 331.378 301.079 331.51 302Z" fill="#263238" stroke="#263238" stroke-miterlimit="10" stroke-linecap="round"/>
<path d="M335.37 300.89L346 299.25C346.124 299.232 346.243 299.189 346.351 299.124C346.458 299.059 346.551 298.973 346.625 298.872C346.698 298.77 346.751 298.655 346.779 298.532C346.808 298.41 346.811 298.284 346.79 298.16V298.16C346.742 297.916 346.604 297.699 346.404 297.552C346.205 297.404 345.957 297.335 345.71 297.36L335.08 299C334.956 299.018 334.837 299.061 334.729 299.126C334.622 299.191 334.529 299.277 334.455 299.378C334.382 299.48 334.329 299.595 334.301 299.718C334.272 299.84 334.269 299.966 334.29 300.09V300.09C334.307 300.214 334.349 300.333 334.413 300.441C334.476 300.549 334.561 300.643 334.662 300.717C334.762 300.792 334.877 300.845 334.998 300.875C335.12 300.905 335.246 300.91 335.37 300.89V300.89Z" fill="white" stroke="#263238" stroke-miterlimit="10" stroke-linecap="round"/>
<path d="M335.78 303.5L346.35 301.85C346.474 301.833 346.593 301.791 346.701 301.727C346.809 301.664 346.903 301.579 346.977 301.478C347.052 301.378 347.105 301.263 347.135 301.142C347.165 301.02 347.17 300.894 347.15 300.77V300.77C347.101 300.524 346.962 300.306 346.761 300.158C346.559 300.01 346.309 299.943 346.06 299.97L335.49 301.62C335.246 301.668 335.029 301.806 334.881 302.006C334.734 302.205 334.665 302.453 334.69 302.7C334.739 302.946 334.877 303.164 335.079 303.312C335.281 303.46 335.531 303.527 335.78 303.5V303.5Z" fill="white" stroke="#263238" stroke-miterlimit="10" stroke-linecap="round"/>
<path d="M333.3 313.53C333.398 314.224 333.7 314.872 334.167 315.394C334.634 315.917 335.246 316.288 335.924 316.462C336.603 316.637 337.318 316.606 337.979 316.374C338.64 316.141 339.217 315.718 339.637 315.158C340.057 314.597 340.302 313.925 340.34 313.225C340.378 312.526 340.207 311.831 339.85 311.228C339.493 310.626 338.965 310.143 338.333 309.84C337.701 309.538 336.993 309.43 336.3 309.53C335.373 309.666 334.538 310.163 333.976 310.912C333.414 311.661 333.171 312.602 333.3 313.53V313.53Z" fill="#263238" stroke="#263238" stroke-miterlimit="10" stroke-linecap="round"/>
<path d="M337.17 312.43L347.74 310.78C347.984 310.732 348.201 310.594 348.348 310.394C348.496 310.195 348.565 309.947 348.54 309.7V309.7C348.491 309.454 348.352 309.236 348.151 309.088C347.949 308.94 347.699 308.873 347.45 308.9L336.88 310.55C336.636 310.598 336.419 310.736 336.271 310.936C336.124 311.135 336.055 311.383 336.08 311.63C336.129 311.876 336.267 312.094 336.469 312.242C336.671 312.39 336.921 312.457 337.17 312.43Z" fill="white" stroke="#263238" stroke-miterlimit="10" stroke-linecap="round"/>
<path d="M337.58 315L348.15 313.35C348.396 313.301 348.614 313.162 348.762 312.961C348.91 312.759 348.977 312.509 348.95 312.26C348.899 312.016 348.759 311.8 348.558 311.654C348.356 311.508 348.107 311.442 347.86 311.47L337.28 313.11C337.036 313.161 336.82 313.301 336.674 313.502C336.528 313.704 336.462 313.953 336.49 314.2C336.539 314.446 336.677 314.664 336.879 314.812C337.081 314.96 337.331 315.027 337.58 315V315Z" fill="white" stroke="#263238" stroke-miterlimit="10" stroke-linecap="round"/>
<path d="M335.1 325.07C335.2 325.765 335.504 326.415 335.975 326.937C336.445 327.458 337.06 327.828 337.741 328C338.422 328.171 339.138 328.136 339.8 327.898C340.461 327.661 341.036 327.233 341.453 326.668C341.87 326.102 342.109 325.426 342.14 324.724C342.172 324.023 341.994 323.328 341.629 322.727C341.264 322.127 340.729 321.649 340.092 321.354C339.454 321.059 338.744 320.96 338.05 321.07C337.131 321.216 336.307 321.717 335.755 322.465C335.203 323.214 334.968 324.149 335.1 325.07V325.07Z" fill="#263238" stroke="#263238" stroke-miterlimit="10" stroke-linecap="round"/>
<path d="M339 324L349.57 322.35C349.816 322.301 350.034 322.162 350.182 321.961C350.33 321.759 350.397 321.509 350.37 321.26V321.26C350.319 321.016 350.179 320.8 349.978 320.654C349.776 320.508 349.527 320.442 349.28 320.47L338.7 322.11C338.456 322.161 338.24 322.301 338.094 322.502C337.948 322.704 337.882 322.953 337.91 323.2V323.2C337.959 323.446 338.097 323.664 338.299 323.812C338.501 323.96 338.751 324.027 339 324V324Z" fill="white" stroke="#263238" stroke-miterlimit="10" stroke-linecap="round"/>
<path d="M339.37 326.58L350 324.93C350.244 324.879 350.46 324.739 350.606 324.538C350.752 324.336 350.818 324.087 350.79 323.84C350.739 323.596 350.599 323.38 350.398 323.234C350.196 323.088 349.947 323.022 349.7 323.05L339.13 324.69C338.884 324.739 338.666 324.877 338.518 325.079C338.37 325.281 338.303 325.531 338.33 325.78V325.78C338.378 326.016 338.509 326.227 338.7 326.374C338.892 326.521 339.129 326.594 339.37 326.58V326.58Z" fill="white" stroke="#263238" stroke-miterlimit="10" stroke-linecap="round"/>
<path d="M336.9 336.61C337.007 337.3 337.317 337.942 337.788 338.457C338.26 338.972 338.873 339.335 339.551 339.502C340.229 339.669 340.941 339.632 341.598 339.395C342.255 339.158 342.827 338.733 343.242 338.172C343.658 337.611 343.898 336.94 343.933 336.242C343.968 335.545 343.796 334.853 343.439 334.253C343.082 333.654 342.555 333.173 341.926 332.872C341.296 332.57 340.591 332.462 339.9 332.56C339.436 332.626 338.989 332.783 338.586 333.023C338.183 333.263 337.832 333.581 337.553 333.958C337.274 334.335 337.073 334.763 336.96 335.218C336.848 335.674 336.828 336.147 336.9 336.61Z" fill="#263238" stroke="#263238" stroke-miterlimit="10" stroke-linecap="round"/>
<path d="M340.76 335.51L351.34 333.86C351.584 333.809 351.8 333.669 351.946 333.468C352.092 333.266 352.158 333.017 352.13 332.77C352.075 332.522 351.927 332.305 351.717 332.162C351.507 332.019 351.251 331.961 351 332L340.43 333.64C340.184 333.689 339.966 333.827 339.818 334.029C339.67 334.231 339.603 334.481 339.63 334.73V334.73C339.683 334.98 339.83 335.2 340.04 335.345C340.25 335.49 340.508 335.549 340.76 335.51Z" fill="white" stroke="#263238" stroke-miterlimit="10" stroke-linecap="round"/>
<path d="M341.17 338.11L351.74 336.47C351.986 336.421 352.204 336.283 352.352 336.081C352.5 335.879 352.567 335.629 352.54 335.38C352.491 335.134 352.352 334.916 352.151 334.768C351.949 334.62 351.699 334.553 351.45 334.58L340.87 336.23C340.626 336.281 340.41 336.421 340.264 336.622C340.118 336.824 340.052 337.073 340.08 337.32C340.131 337.564 340.271 337.78 340.472 337.926C340.674 338.072 340.923 338.138 341.17 338.11Z" fill="white" stroke="#263238" stroke-miterlimit="10" stroke-linecap="round"/>
<path d="M338.69 348.14C338.79 348.835 339.094 349.485 339.565 350.007C340.035 350.528 340.65 350.898 341.331 351.07C342.012 351.241 342.728 351.206 343.39 350.968C344.051 350.731 344.626 350.303 345.043 349.738C345.46 349.172 345.699 348.496 345.73 347.794C345.762 347.093 345.584 346.398 345.219 345.797C344.854 345.197 344.319 344.719 343.682 344.424C343.044 344.129 342.334 344.03 341.64 344.14C340.721 344.286 339.897 344.787 339.345 345.535C338.793 346.284 338.558 347.219 338.69 348.14V348.14Z" fill="#263238" stroke="#263238" stroke-miterlimit="10" stroke-linecap="round"/>
<path d="M342.56 347L353.13 345.36C353.376 345.311 353.594 345.173 353.742 344.971C353.89 344.769 353.957 344.519 353.93 344.27C353.912 344.146 353.869 344.027 353.804 343.919C353.739 343.812 353.653 343.719 353.552 343.645C353.45 343.572 353.335 343.519 353.212 343.491C353.09 343.462 352.964 343.459 352.84 343.48L342.26 345.12C342.016 345.171 341.8 345.311 341.654 345.512C341.508 345.714 341.442 345.963 341.47 346.21C341.488 346.334 341.531 346.453 341.596 346.561C341.661 346.668 341.747 346.761 341.848 346.835C341.95 346.908 342.065 346.961 342.187 346.989C342.31 347.018 342.436 347.021 342.56 347V347Z" fill="white" stroke="#263238" stroke-miterlimit="10" stroke-linecap="round"/>
<path d="M343 349.65L353.54 348C353.784 347.949 354 347.809 354.146 347.608C354.292 347.406 354.358 347.157 354.33 346.91C354.281 346.664 354.142 346.446 353.941 346.298C353.739 346.15 353.489 346.083 353.24 346.11L342.67 347.76C342.424 347.809 342.206 347.948 342.058 348.149C341.91 348.351 341.843 348.601 341.87 348.85C341.919 349.103 342.064 349.328 342.274 349.477C342.485 349.626 342.745 349.688 343 349.65Z" fill="white" stroke="#263238" stroke-miterlimit="10" stroke-linecap="round"/>
<path d="M340.49 359.68C340.59 360.375 340.894 361.025 341.365 361.547C341.835 362.068 342.45 362.438 343.131 362.61C343.812 362.781 344.528 362.746 345.19 362.508C345.851 362.271 346.426 361.843 346.843 361.278C347.26 360.712 347.499 360.036 347.53 359.334C347.562 358.633 347.384 357.938 347.019 357.337C346.654 356.737 346.119 356.259 345.482 355.964C344.844 355.669 344.134 355.57 343.44 355.68C342.521 355.826 341.697 356.327 341.145 357.075C340.593 357.824 340.358 358.759 340.49 359.68Z" fill="#263238" stroke="#263238" stroke-miterlimit="10" stroke-linecap="round"/>
<path d="M344.35 358.58L354.93 356.94C355.174 356.889 355.39 356.749 355.536 356.548C355.682 356.346 355.748 356.097 355.72 355.85C355.671 355.604 355.532 355.386 355.331 355.238C355.129 355.09 354.879 355.023 354.63 355.05L344.06 356.7C343.814 356.749 343.596 356.887 343.448 357.089C343.3 357.291 343.233 357.541 343.26 357.79C343.311 358.034 343.451 358.25 343.652 358.396C343.854 358.542 344.103 358.608 344.35 358.58Z" fill="white" stroke="#263238" stroke-miterlimit="10" stroke-linecap="round"/>
<path d="M344.76 361.19L355.33 359.54C355.574 359.492 355.791 359.354 355.938 359.154C356.086 358.955 356.155 358.707 356.13 358.46C356.081 358.214 355.942 357.996 355.741 357.848C355.539 357.7 355.289 357.633 355.04 357.66L344.46 359.31C344.216 359.361 344 359.501 343.854 359.702C343.708 359.904 343.642 360.153 343.67 360.4C343.721 360.644 343.861 360.86 344.062 361.006C344.264 361.152 344.513 361.218 344.76 361.19Z" fill="white" stroke="#263238" stroke-miterlimit="10" stroke-linecap="round"/>
<path d="M342.28 371.22C342.378 371.914 342.68 372.562 343.147 373.084C343.614 373.607 344.226 373.978 344.904 374.152C345.583 374.327 346.298 374.296 346.959 374.064C347.62 373.831 348.197 373.408 348.617 372.848C349.037 372.287 349.282 371.615 349.32 370.915C349.358 370.216 349.187 369.521 348.83 368.918C348.473 368.316 347.945 367.833 347.313 367.53C346.681 367.228 345.973 367.12 345.28 367.22C344.352 367.354 343.515 367.85 342.953 368.6C342.391 369.35 342.149 370.292 342.28 371.22Z" fill="#263238" stroke="#263238" stroke-miterlimit="10" stroke-linecap="round"/>
<path d="M346.15 370.12L356.72 368.48C356.966 368.431 357.184 368.293 357.332 368.091C357.48 367.889 357.547 367.639 357.52 367.39V367.39C357.471 367.144 357.332 366.926 357.131 366.778C356.929 366.63 356.679 366.563 356.43 366.59L345.85 368.24C345.606 368.291 345.39 368.431 345.244 368.632C345.098 368.834 345.032 369.083 345.06 369.33V369.33C345.111 369.574 345.251 369.79 345.452 369.936C345.654 370.082 345.903 370.148 346.15 370.12Z" fill="white" stroke="#263238" stroke-miterlimit="10" stroke-linecap="round"/>
<path d="M346.55 372.73L357.13 371.08C357.374 371.029 357.59 370.889 357.736 370.688C357.882 370.486 357.948 370.237 357.92 369.99V369.99C357.902 369.867 357.859 369.749 357.795 369.642C357.73 369.535 357.646 369.443 357.545 369.369C357.445 369.296 357.331 369.243 357.21 369.214C357.088 369.185 356.963 369.18 356.84 369.2L346.26 370.85C346.136 370.867 346.017 370.909 345.91 370.973C345.803 371.037 345.709 371.122 345.636 371.222C345.562 371.323 345.509 371.438 345.481 371.559C345.452 371.681 345.449 371.807 345.47 371.93V371.93C345.518 372.174 345.656 372.391 345.856 372.538C346.055 372.686 346.303 372.755 346.55 372.73Z" fill="white" stroke="#263238" stroke-miterlimit="10" stroke-linecap="round"/>
<g opacity="0.3">
<path opacity="0.3" d="M191.08 175.51L193.71 175.11" stroke="#0F0000" stroke-miterlimit="10" stroke-linecap="round"/>
<path opacity="0.3" d="M196.34 174.7L198.97 174.29" stroke="#0F0000" stroke-miterlimit="10" stroke-linecap="round"/>
<path opacity="0.3" d="M165.38 183.22L168 182.81" stroke="#0F0000" stroke-miterlimit="10" stroke-linecap="round"/>
<path opacity="0.3" d="M170.63 182.4L173.26 181.99" stroke="#0F0000" stroke-miterlimit="10" stroke-linecap="round"/>
<path opacity="0.3" d="M175.89 181.59L178.51 181.18" stroke="#0F0000" stroke-miterlimit="10" stroke-linecap="round"/>
<path opacity="0.3" d="M181.14 180.77L183.77 180.36" stroke="#0F0000" stroke-miterlimit="10" stroke-linecap="round"/>
<path opacity="0.3" d="M186.39 179.95L189.02 179.54" stroke="#0F0000" stroke-miterlimit="10" stroke-linecap="round"/>
<path opacity="0.3" d="M191.65 179.13L194.27 178.72" stroke="#0F0000" stroke-miterlimit="10" stroke-linecap="round"/>
<path opacity="0.3" d="M196.9 178.31L199.53 177.91" stroke="#0F0000" stroke-miterlimit="10" stroke-linecap="round"/>
<path opacity="0.3" d="M165.94 186.84L168.57 186.43" stroke="#0F0000" stroke-miterlimit="10" stroke-linecap="round"/>
<path opacity="0.3" d="M171.19 186.02L173.82 185.61" stroke="#0F0000" stroke-miterlimit="10" stroke-linecap="round"/>
<path opacity="0.3" d="M176.45 185.2L179.08 184.8" stroke="#0F0000" stroke-miterlimit="10" stroke-linecap="round"/>
<path opacity="0.3" d="M181.7 184.39L184.33 183.98" stroke="#0F0000" stroke-miterlimit="10" stroke-linecap="round"/>
<path opacity="0.3" d="M186.96 183.57L189.58 183.16" stroke="#0F0000" stroke-miterlimit="10" stroke-linecap="round"/>
<path opacity="0.3" d="M192.21 182.75L194.84 182.34" stroke="#0F0000" stroke-miterlimit="10" stroke-linecap="round"/>
<path opacity="0.3" d="M197.46 181.93L200.09 181.52" stroke="#0F0000" stroke-miterlimit="10" stroke-linecap="round"/>
<path opacity="0.3" d="M166.5 190.46L169.13 190.05" stroke="#0F0000" stroke-miterlimit="10" stroke-linecap="round"/>
<path opacity="0.3" d="M171.76 189.64L174.38 189.23" stroke="#0F0000" stroke-miterlimit="10" stroke-linecap="round"/>
<path opacity="0.3" d="M177.01 188.82L179.64 188.41" stroke="#0F0000" stroke-miterlimit="10" stroke-linecap="round"/>
<path opacity="0.3" d="M182.27 188.01L184.89 187.6" stroke="#0F0000" stroke-miterlimit="10" stroke-linecap="round"/>
<path opacity="0.3" d="M187.52 187.19L190.15 186.78" stroke="#0F0000" stroke-miterlimit="10" stroke-linecap="round"/>
<path opacity="0.3" d="M192.77 186.37L195.4 185.96" stroke="#0F0000" stroke-miterlimit="10" stroke-linecap="round"/>
<path opacity="0.3" d="M198.03 185.55L200.65 185.14" stroke="#0F0000" stroke-miterlimit="10" stroke-linecap="round"/>
<path opacity="0.3" d="M167.07 194.08L169.69 193.67" stroke="#0F0000" stroke-miterlimit="10" stroke-linecap="round"/>
<path opacity="0.3" d="M172.32 193.26L174.95 192.85" stroke="#0F0000" stroke-miterlimit="10" stroke-linecap="round"/>
<path opacity="0.3" d="M177.57 192.44L180.2 192.03" stroke="#0F0000" stroke-miterlimit="10" stroke-linecap="round"/>
<path opacity="0.3" d="M182.83 191.62L185.46 191.22" stroke="#0F0000" stroke-miterlimit="10" stroke-linecap="round"/>
<path opacity="0.3" d="M188.08 190.81L190.71 190.4" stroke="#0F0000" stroke-miterlimit="10" stroke-linecap="round"/>
<path opacity="0.3" d="M193.34 189.99L195.96 189.58" stroke="#0F0000" stroke-miterlimit="10" stroke-linecap="round"/>
<path opacity="0.3" d="M198.59 189.17L201.22 188.76" stroke="#0F0000" stroke-miterlimit="10" stroke-linecap="round"/>
<path opacity="0.3" d="M164.07 174.85L166.7 174.44" stroke="#0F0000" stroke-miterlimit="10" stroke-linecap="round"/>
<path opacity="0.3" d="M169.33 174.03L171.96 173.63" stroke="#0F0000" stroke-miterlimit="10" stroke-linecap="round"/>
<path opacity="0.3" d="M174.58 173.22L177.21 172.81" stroke="#0F0000" stroke-miterlimit="10" stroke-linecap="round"/>
<path opacity="0.3" d="M179.84 172.4L182.46 171.99" stroke="#0F0000" stroke-miterlimit="10" stroke-linecap="round"/>
<path opacity="0.3" d="M185.09 171.58L187.72 171.17" stroke="#0F0000" stroke-miterlimit="10" stroke-linecap="round"/>
<path opacity="0.3" d="M190.35 170.76L192.97 170.36" stroke="#0F0000" stroke-miterlimit="10" stroke-linecap="round"/>
<path opacity="0.3" d="M195.6 169.95L198.23 169.54" stroke="#0F0000" stroke-miterlimit="10" stroke-linecap="round"/>
<path opacity="0.3" d="M198.77 171.54L164.17 176.92" stroke="#0F0000" stroke-miterlimit="10" stroke-linecap="round"/>
<path opacity="0.3" d="M173.77 168.71L187.12 166.63" stroke="#0F0000" stroke-miterlimit="10" stroke-linecap="round"/>
<path opacity="0.3" d="M157.19 206.03L304.42 183.12" stroke="#0F0000" stroke-miterlimit="10" stroke-linecap="round"/>
<path opacity="0.3" d="M159.04 217.89L306.26 194.98" stroke="#0F0000" stroke-miterlimit="10" stroke-linecap="round"/>
<path opacity="0.3" d="M160.88 229.74L308.11 206.83" stroke="#0F0000" stroke-miterlimit="10" stroke-linecap="round"/>
<path opacity="0.3" d="M162.73 241.6L309.95 218.69" stroke="#0F0000" stroke-miterlimit="10" stroke-linecap="round"/>
<path opacity="0.3" d="M164.57 253.46L311.8 230.55" stroke="#0F0000" stroke-miterlimit="10" stroke-linecap="round"/>
<path opacity="0.3" d="M166.42 265.32L313.64 242.4" stroke="#0F0000" stroke-miterlimit="10" stroke-linecap="round"/>
<path opacity="0.3" d="M168.26 277.17L315.49 254.26" stroke="#0F0000" stroke-miterlimit="10" stroke-linecap="round"/>
<path opacity="0.3" d="M170.11 289.03L317.33 266.12" stroke="#0F0000" stroke-miterlimit="10" stroke-linecap="round"/>
<path opacity="0.3" d="M171.95 300.89L319.18 277.98" stroke="#0F0000" stroke-miterlimit="10" stroke-linecap="round"/>
<path opacity="0.3" d="M173.8 312.75L321.02 289.83" stroke="#0F0000" stroke-miterlimit="10" stroke-linecap="round"/>
<path opacity="0.3" d="M175.64 324.6L322.87 301.69" stroke="#0F0000" stroke-miterlimit="10" stroke-linecap="round"/>
<path opacity="0.3" d="M177.49 336.46L324.72 313.55" stroke="#0F0000" stroke-miterlimit="10" stroke-linecap="round"/>
<path opacity="0.3" d="M179.33 348.32L326.56 325.41" stroke="#0F0000" stroke-miterlimit="10" stroke-linecap="round"/>
<path opacity="0.3" d="M183.72 376.48L330.94 353.57" stroke="#0F0000" stroke-miterlimit="10" stroke-linecap="round"/>
<path opacity="0.3" d="M185.18 385.87L332.4 362.95" stroke="#0F0000" stroke-miterlimit="10" stroke-linecap="round"/>
<path opacity="0.3" d="M186.64 395.25L333.86 372.34" stroke="#0F0000" stroke-miterlimit="10" stroke-linecap="round"/>
</g>
<path d="M178.19 217.44C178.19 217.44 165.63 231.03 172.89 228.89C180.15 226.75 190.08 212.55 187.97 218.45C185.86 224.35 185.97 228.37 189.38 224.3C192.79 220.23 194.7 219.42 194.01 221.55C193.32 223.68 196.14 222.23 196.14 222.23C196.14 222.23 203.14 218.11 202.41 220.23C201.68 222.35 201.24 222.44 203.22 222.13L209.64 221.13C209.64 221.13 209.22 221.71 215.15 220.78C221.08 219.85 223.39 218.49 226.36 218.03" stroke="#263238" stroke-miterlimit="10" stroke-linecap="round"/>
<path d="M172.49 236C172.49 236 182.17 229.94 183.39 231.27C184.61 232.6 182.94 234.88 187.31 233.7C191.68 232.52 195.66 228.86 195.97 230.83C196.28 232.8 199.09 231.36 199.09 231.36L201.56 230.97C201.56 230.97 206.08 230.78 207.49 230.05C208.9 229.32 210.36 222.52 209.28 231.8C208.2 241.08 204.41 233.06 213.42 229.13C222.43 225.2 224.1 229.49 224.1 229.49C225.097 229.265 226.067 228.929 226.99 228.49C228.88 227.68 230.55 225.4 232.34 227.15C234.13 228.9 237.34 223.34 237.34 223.34C238.589 223.573 239.822 223.887 241.03 224.28C242.188 224.685 243.418 224.838 244.64 224.73C246.15 224.788 247.661 224.721 249.16 224.53C251.16 224.22 252.81 221.94 254.44 222.7C256.07 223.46 258.54 216.49 257.3 224.78C256.06 233.07 248.04 236.85 251.3 231.78C254.177 227.352 257.874 223.513 262.19 220.47C265.84 217.88 266.9 218.22 267.7 220.12C268.5 222.02 269.49 221.86 271.39 221.06C273.29 220.26 271.66 219.5 273.29 220.26C273.833 220.569 274.431 220.767 275.05 220.844C275.67 220.922 276.298 220.876 276.9 220.71C278.39 220.48 271.44 224.6 278.39 220.48C285.34 216.36 287.82 199.78 284.18 208.95C280.54 218.12 281.92 220.44 286.79 219.17" stroke="#263238" stroke-miterlimit="10" stroke-linecap="round"/>
<path d="M173.54 252.57C173.54 252.57 185.42 241.11 184.69 239.7C183.96 238.29 180.17 239.9 177.4 244.88C174.63 249.86 176.58 252.6 184.03 248.41C191.48 244.22 180.64 249.41 188.29 249.77C195.94 250.13 198.2 245.19 198.43 246.67C198.66 248.15 196.11 248.04 202.12 247.67C208.13 247.3 205.19 244.67 211.35 245.22C217.51 245.77 220.25 243.83 220.25 243.83L224.2 243.22C224.2 243.22 216.2 243.95 226.59 242.34C236.98 240.73 241.54 227.87 236.54 234.72C231.54 241.57 233.89 243.72 239.02 240.91L244.15 238.09C244.15 238.09 250.63 231.01 247.57 240.59C244.51 250.17 240.89 243.15 252.28 238.34C263.67 233.53 263.38 238.13 267.18 236.53C270.98 234.93 270.36 230.97 272.88 234.12C275.4 237.27 275.24 236.29 279.19 235.67C283.14 235.05 282.08 234.67 285.54 234.18L293 233" stroke="#263238" stroke-miterlimit="10" stroke-linecap="round"/>
<path d="M175.54 288.19C175.54 288.19 183.82 282.85 185.14 275.05C186.46 267.25 179.93 277.38 180.64 288.4C181.35 299.42 177.47 284.34 189.02 280.52C200.57 276.7 188.02 283.72 189.3 285.52C190.58 287.32 200.05 279.8 199.94 282.34C199.83 284.88 201.94 285.57 207.76 280.62C213.58 275.67 204.11 276.62 203.66 280.25C203.21 283.88 206.02 282.41 213.2 279.77C220.38 277.13 213.35 280.77 217.8 280.07C222.25 279.37 232.04 270.77 230.11 274.61C228.18 278.45 230.04 280.7 232.2 278.34C234.36 275.98 238.96 269.69 239.34 272.16C239.569 273.619 239.252 275.11 238.45 276.35" stroke="#263238" stroke-miterlimit="10" stroke-linecap="round"/>
<path opacity="0.3" d="M129.13 194.09C128.937 193.886 128.73 193.695 128.51 193.52C127.876 193.026 127.18 192.616 126.44 192.3L126 192.14H125.89C121.95 190.92 108.48 190.34 103.96 190.14C102.833 190.101 101.725 190.444 100.817 191.114C99.9094 191.784 99.2549 192.741 98.96 193.83V193.94C98 197.61 84.3 288.15 84.3 288.15C84.3 288.15 84.2 290.15 84.06 293.28C84 294.65 83.94 296.28 83.86 297.93C83.86 298.36 83.86 298.79 83.86 299.23C83.86 300.11 83.79 301.01 83.75 301.92C83.62 305.13 83.5 308.51 83.41 311.6C83.34 313.8 83.29 315.86 83.26 317.6C83.26 318.99 83.26 320.17 83.26 321.07C83.2484 323.165 83.3653 325.259 83.61 327.34C84 329.92 84.9 331.11 87.12 331.5C87.67 331.6 88.47 331.72 89.44 331.84L90.04 331.91L92.79 332.21L93.55 332.28L95.9 332.47L97.52 332.57L99.15 332.65C100.22 332.7 101.28 332.72 102.29 332.72C103.761 332.742 105.231 332.658 106.69 332.47H106.82L107.19 332.4L107.6 332.3H107.68L108.09 332.17L108.78 331.91L109.41 331.65C110.259 331.311 111.067 330.878 111.82 330.36C112.063 330.186 112.297 329.999 112.52 329.8C112.733 329.613 112.933 329.413 113.12 329.2L113.38 328.89C113.744 328.432 114.078 327.951 114.38 327.45C114.43 327.372 114.47 327.288 114.5 327.2L114.56 327.05L114.66 326.79C114.682 326.712 114.709 326.635 114.74 326.56C114.74 326.45 114.8 326.36 114.84 326.24L114.93 325.96C114.93 325.83 115 325.71 115.04 325.57C115.08 325.43 115.11 325.35 115.14 325.24C115.17 325.13 115.22 324.94 115.27 324.78C115.32 324.62 115.34 324.51 115.38 324.38C115.42 324.25 115.46 324.06 115.51 323.88C115.56 323.7 115.59 323.58 115.63 323.43C115.67 323.28 115.72 323.07 115.77 322.87L115.89 322.4L116.04 321.79C116.04 321.62 116.13 321.43 116.18 321.25L116.33 320.61C116.38 320.43 116.42 320.23 116.47 320.04C116.52 319.85 116.58 319.59 116.63 319.36L116.78 318.75C116.78 318.52 116.89 318.29 116.94 318.05C116.99 317.81 117.04 317.61 117.1 317.39C117.16 317.17 117.21 316.91 117.26 316.66C117.265 316.59 117.265 316.52 117.26 316.45C117.26 316.31 117.33 316.17 117.36 316.03C117.39 315.89 117.48 315.49 117.55 315.21C117.62 314.93 117.64 314.79 117.69 314.57C117.74 314.35 117.81 314.02 117.88 313.74L118.03 313.08L118.21 312.25C118.21 312.01 118.32 311.76 118.37 311.52L118.55 310.73C118.55 310.48 118.66 310.22 118.71 309.97L118.89 309.18C118.89 309.06 118.89 308.94 118.96 308.82C119.03 308.7 119.03 308.54 119.06 308.4C119.09 308.26 119.17 307.88 119.22 307.62C119.27 307.36 119.33 307.11 119.39 306.85C119.45 306.59 119.5 306.31 119.56 306.05C119.62 305.79 119.67 305.53 119.73 305.27C119.79 305.01 119.83 304.77 119.89 304.52C119.95 304.27 120 303.97 120.06 303.69L120.21 302.97C120.27 302.71 120.32 302.46 120.37 302.21C120.42 301.96 120.48 301.68 120.54 301.42L120.69 300.67C120.69 300.44 120.79 300.21 120.83 299.98C120.87 299.75 120.9 299.64 120.94 299.47L121 299.18C121 298.96 121.09 298.74 121.13 298.52C121.17 298.3 121.24 298.02 121.29 297.77C121.34 297.52 121.37 297.34 121.42 297.13L121.57 296.36C121.57 296.19 121.64 296.01 121.67 295.84L121.79 295.26C121.79 295.19 121.79 295.12 121.79 295.04C121.79 294.96 121.86 294.71 121.89 294.54L122.04 293.81L122.13 293.31C122.18 293.08 122.22 292.85 122.26 292.64L122.35 292.2L122.47 291.53C122.47 291.41 122.47 291.3 122.54 291.19L122.66 290.54L122.72 290.22C122.72 290.02 122.79 289.83 122.82 289.65C122.82 289.41 122.9 289.17 122.94 288.96C123.11 287.96 123.34 285.75 123.62 282.66C123.73 281.5 123.84 280.22 123.96 278.82C124.39 273.72 124.89 267.16 125.42 259.96C125.42 259.31 125.51 258.65 125.56 257.96C127.56 230.74 129.78 195.81 129.78 195.81C129.793 195.494 129.742 195.179 129.63 194.884C129.519 194.588 129.348 194.318 129.13 194.09V194.09Z" fill="#0F0000"/>
<path d="M79.63 287.15C79.63 287.15 78.4 312.91 78.54 320.05C78.68 327.19 78.85 329.86 82.39 330.49C85.93 331.12 99.59 332.49 103.39 331.11C107.19 329.73 108.39 328.51 109.67 326.4C110.95 324.29 116.97 295.83 118.33 287.84C119.69 279.85 125.18 194.72 125.18 194.72C125.18 194.72 125.39 192.91 121.74 191.3C118.74 189.95 104.02 189.3 99.26 189.14C98.1254 189.089 97.0072 189.425 96.0893 190.094C95.1715 190.763 94.5086 191.724 94.21 192.82C94.21 192.82 94.21 192.9 94.21 192.93C93.3 196.6 79.63 287.15 79.63 287.15Z" fill="#8B82FF"/>
<path opacity="0.5" d="M101.37 331.53C102.05 331.466 102.721 331.325 103.37 331.11C107.21 329.73 108.37 328.51 109.65 326.4C110.93 324.29 116.95 295.83 118.31 287.84C119.67 279.85 125.16 194.72 125.16 194.72C125.16 194.72 125.37 192.91 121.72 191.3C121.367 191.152 121.003 191.035 120.63 190.95C119.84 210.7 117.17 234.15 112.48 262.01C108.1 288.37 103.13 320.23 101.37 331.53Z" fill="#0F0000"/>
<path d="M79.63 287.15C79.63 287.15 78.4 312.91 78.54 320.05C78.68 327.19 78.85 329.86 82.39 330.49C85.93 331.12 99.59 332.49 103.39 331.11C107.19 329.73 108.39 328.51 109.67 326.4C110.95 324.29 116.97 295.83 118.33 287.84C119.69 279.85 125.18 194.72 125.18 194.72C125.18 194.72 125.39 192.91 121.74 191.3C118.74 189.95 104.02 189.3 99.26 189.14C98.1254 189.089 97.0072 189.425 96.0893 190.094C95.1715 190.763 94.5086 191.724 94.21 192.82C94.21 192.82 94.21 192.9 94.21 192.93C93.3 196.6 79.63 287.15 79.63 287.15Z" stroke="#263238" stroke-linecap="round" stroke-linejoin="round"/>
<path d="M107.57 290.14C103.3 290.14 84.9099 288.2 82.0599 287.59C81.2487 287.421 80.4475 287.208 79.6599 286.95V287.15C79.6599 287.15 78.4299 312.91 78.5699 320.05C78.7099 327.19 78.8799 329.86 82.4199 330.49C85.9599 331.12 99.6199 332.49 103.42 331.11C107.22 329.73 108.42 328.51 109.7 326.4C110.98 324.29 116.7 297.4 118.24 288.54C114.64 290.41 111.08 290.11 107.57 290.14Z" fill="#F1B3E3"/>
<path opacity="0.5" d="M101.37 331.53C102.05 331.466 102.721 331.325 103.37 331.11C107.21 329.73 108.37 328.51 109.65 326.4C110.93 324.29 116.95 295.83 118.31 287.84C119.67 279.85 125.16 194.72 125.16 194.72C125.16 194.72 125.37 192.91 121.72 191.3C121.367 191.152 121.003 191.035 120.63 190.95C119.84 210.7 117.17 234.15 112.48 262.01C108.1 288.37 103.13 320.23 101.37 331.53Z" fill="#0F0000"/>
<path opacity="0.26" d="M107.61 292.52C110.419 292.4 113.205 291.971 115.92 291.24" stroke="white" stroke-linecap="round" stroke-linejoin="round"/>
<path d="M81.09 289.57C81.09 289.57 103.66 292.66 107.61 292.52" stroke="white" stroke-linecap="round" stroke-linejoin="round"/>
<path d="M107.57 290.14C103.3 290.14 84.9099 288.2 82.0599 287.59C81.2487 287.421 80.4475 287.208 79.6599 286.95V287.15C79.6599 287.15 78.4299 312.91 78.5699 320.05C78.7099 327.19 78.8799 329.86 82.4199 330.49C85.9599 331.12 99.6199 332.49 103.42 331.11C107.22 329.73 108.42 328.51 109.7 326.4C110.98 324.29 116.7 297.4 118.24 288.54C114.64 290.41 111.08 290.11 107.57 290.14Z" stroke="#263238" stroke-linecap="round" stroke-linejoin="round"/>
<path d="M401.678 184.514C422.697 173.568 430.863 147.655 419.916 126.636C408.97 105.617 383.057 97.4516 362.038 108.398C341.019 119.344 332.854 145.258 343.8 166.276C354.746 187.295 380.659 195.461 401.678 184.514Z" fill="#263238" stroke="#263238" stroke-linecap="round" stroke-linejoin="round"/>
<path d="M421.232 147.493C424.157 123.976 407.464 102.54 383.946 99.615C360.429 96.69 338.993 113.383 336.068 136.901C333.143 160.418 349.836 181.854 373.354 184.779C396.871 187.704 418.307 171.011 421.232 147.493Z" fill="white" stroke="#263238" stroke-linecap="round" stroke-linejoin="round"/>
<path d="M416.796 148.469C420.257 127.405 405.987 107.525 384.923 104.064C363.86 100.604 343.979 114.873 340.519 135.937C337.058 157 351.328 176.881 372.391 180.342C393.455 183.802 413.336 169.532 416.796 148.469Z" fill="#263238" stroke="#263238" stroke-linecap="round" stroke-linejoin="round"/>
<path d="M374.13 113.15C374.13 113.15 369.87 102.49 362.4 95C354.93 87.51 324.56 82.74 324.56 82.74C329.464 87.4742 333.923 92.6494 337.88 98.2C344.81 107.79 367.74 129.65 367.74 129.65C367.74 129.65 356.54 120.05 346.41 118.99C336.28 117.93 310.7 123.25 309.1 123.25C307.5 123.25 318.69 127.52 326.69 131.25C334.69 134.98 365.6 138.18 365.6 138.18C365.6 138.18 352.28 141.91 343.21 145.11C334.14 148.31 325.62 171.76 325.62 171.76C325.62 171.76 337.35 161.1 347.48 158.43C357.61 155.76 372 151 372 151C372 151 362.94 161.13 360.81 168.06C358.68 174.99 360.27 190.98 360.27 190.98C360.27 190.98 365.07 176.05 370.93 170.19C376.79 164.33 383.19 154.19 383.19 154.19C386.143 159.004 388.814 163.986 391.19 169.11C395.45 178.18 398.12 191.5 398.12 191.5C398.12 191.5 405.05 176.58 404.52 169.11C403.99 161.64 396 148.33 396 148.33C396 148.33 401.33 144.6 409.32 147.8C417.31 151 431.18 164.33 431.18 164.33C431.18 164.33 427.98 146.74 422.65 139.81C417.32 132.88 394.4 130.74 394.4 130.74C394.4 130.74 407.19 123.28 415.19 121.68C423.19 120.08 433.85 123.81 433.85 123.81C433.85 123.81 421.58 106.81 411.99 105.69C402.4 104.57 387.99 119.55 387.99 119.55C387.99 119.55 391.19 103.55 392.26 98.23C393.33 92.91 391.19 79.57 391.19 79.57C391.19 79.57 385.33 82.77 378.4 92.9C376.367 95.8165 374.941 99.1123 374.207 102.591C373.474 106.07 373.447 109.661 374.13 113.15Z" fill="#8B82FF"/>
<path opacity="0.5" d="M374.13 113.15C374.13 113.15 369.87 102.49 362.4 95C354.93 87.51 324.56 82.74 324.56 82.74C329.464 87.4742 333.923 92.6494 337.88 98.2C344.81 107.79 367.74 129.65 367.74 129.65C367.74 129.65 356.54 120.05 346.41 118.99C336.28 117.93 310.7 123.25 309.1 123.25C307.5 123.25 318.69 127.52 326.69 131.25C334.69 134.98 365.6 138.18 365.6 138.18C365.6 138.18 352.28 141.91 343.21 145.11C334.14 148.31 325.62 171.76 325.62 171.76C325.62 171.76 337.35 161.1 347.48 158.43C357.61 155.76 372 151 372 151C372 151 362.94 161.13 360.81 168.06C358.68 174.99 360.27 190.98 360.27 190.98C360.27 190.98 365.07 176.05 370.93 170.19C376.79 164.33 383.19 154.19 383.19 154.19C386.143 159.004 388.814 163.986 391.19 169.11C395.45 178.18 398.12 191.5 398.12 191.5C398.12 191.5 405.05 176.58 404.52 169.11C403.99 161.64 396 148.33 396 148.33C396 148.33 401.33 144.6 409.32 147.8C417.31 151 431.18 164.33 431.18 164.33C431.18 164.33 427.98 146.74 422.65 139.81C417.32 132.88 394.4 130.74 394.4 130.74C394.4 130.74 407.19 123.28 415.19 121.68C423.19 120.08 433.85 123.81 433.85 123.81C433.85 123.81 421.58 106.81 411.99 105.69C402.4 104.57 387.99 119.55 387.99 119.55C387.99 119.55 391.19 103.55 392.26 98.23C393.33 92.91 391.19 79.57 391.19 79.57C391.19 79.57 385.33 82.77 378.4 92.9C376.367 95.8165 374.941 99.1123 374.207 102.591C373.474 106.07 373.447 109.661 374.13 113.15Z" fill="#0F0000"/>
<path d="M384.63 96.93C385 95.39 385.41 93.87 385.86 92.36" stroke="#263238" stroke-width="0.5" stroke-linecap="round" stroke-linejoin="round"/>
<path d="M349 96.92C354 100.57 360.23 105.58 363.44 109.92C369.3 117.92 381.03 134.98 381.03 134.98C380.697 123.526 381.605 112.069 383.74 100.81" stroke="#263238" stroke-width="0.5" stroke-linecap="round" stroke-linejoin="round"/>
<path d="M341.62 91.83C341.62 91.83 343.17 92.83 345.5 94.42" stroke="#263238" stroke-width="0.5" stroke-linecap="round" stroke-linejoin="round"/>
<path d="M381.06 135C381.06 135 401.32 114.74 409.85 113.14C418.38 111.54 425.85 117.94 425.85 117.94" stroke="#263238" stroke-width="0.5" stroke-linecap="round" stroke-linejoin="round"/>
<path d="M344.86 152C339.93 155.14 339.48 156.91 339.48 156.91" stroke="#263238" stroke-width="0.5" stroke-linecap="round" stroke-linejoin="round"/>
<path d="M425.31 153.67C425.31 153.67 422.11 145.67 410.91 141.94C399.71 138.21 382.13 137.67 382.13 137.67C382.13 137.67 357.46 145.75 348.44 149.96" stroke="#263238" stroke-width="0.5" stroke-linecap="round" stroke-linejoin="round"/>
<path d="M371.36 134.63C377.36 136.36 382.13 137.63 382.13 137.63" stroke="#263238" stroke-width="0.5" stroke-linecap="round" stroke-linejoin="round"/>
<path d="M333.81 125.16C339.6 125.51 347.06 126.3 351.21 128.08C354.59 129.53 361.26 131.63 367.54 133.5" stroke="#263238" stroke-width="0.5" stroke-linecap="round" stroke-linejoin="round"/>
<path d="M325.62 124.88C325.62 124.88 327.57 124.88 330.45 124.99" stroke="#263238" stroke-width="0.5" stroke-linecap="round" stroke-linejoin="round"/>
<path d="M381.06 140.87C381.06 140.87 366.14 163.26 365.06 168.59C364.419 171.752 364.06 174.965 363.99 178.19" stroke="#263238" stroke-width="0.5" stroke-linecap="round" stroke-linejoin="round"/>
<path d="M387.7 147.92C390.57 151.63 394.02 156.57 395.45 160.6C397.136 165.453 398.387 170.446 399.19 175.52" stroke="#263238" stroke-width="0.5" stroke-linecap="round" stroke-linejoin="round"/>
<path d="M383.19 142.47C383.19 142.47 384.38 143.79 386.03 145.82" stroke="#263238" stroke-width="0.5" stroke-linecap="round" stroke-linejoin="round"/>
<path d="M367.36 117.75C367.36 117.75 364.6 106.6 366.31 96.18C368.02 85.76 389.91 64.18 389.91 64.18C388.683 70.8866 388.077 77.6921 388.1 84.51C388.1 96.35 382.19 127.51 382.19 127.51C382.19 127.51 385.69 113.18 393.3 106.41C400.91 99.64 424.79 89 426.09 88C427.39 87 420.79 97.06 416.47 104.76C412.15 112.46 388.9 133.08 388.9 133.08C388.9 133.08 401.9 128.34 411.13 125.65C420.36 122.96 441 137.08 441 137.08C441 137.08 425.26 135.26 415.48 139C405.7 142.74 391.21 147.24 391.21 147.24C391.21 147.24 404.48 150.19 410.21 154.57C415.94 158.95 424 172.88 424 172.88C424 172.88 411.4 163.55 403.22 162.21C395.04 160.87 383.93 156.37 383.93 156.37C384.346 162.004 385.084 167.61 386.14 173.16C387.96 183.01 393.57 195.39 393.57 195.39C393.57 195.39 379.24 187.31 375.32 180.93C371.4 174.55 370.12 159.07 370.12 159.07C370.12 159.07 363.61 159.15 358.98 166.41C354.35 173.67 350.87 192.58 350.87 192.58C350.87 192.58 343.2 176.43 343.49 167.69C343.78 158.95 361.16 143.85 361.16 143.85C361.16 143.85 346.41 145.25 338.98 148.61C331.55 151.97 325.07 161.23 325.07 161.23C325.07 161.23 325.07 140.23 332.25 133.76C339.43 127.29 359.83 131 359.83 131L343.93 116.16C339.93 112.46 333.93 100.39 333.93 100.39C333.93 100.39 340.55 99.56 352.09 103.75C355.445 104.938 358.527 106.79 361.15 109.195C363.774 111.601 365.886 114.51 367.36 117.75V117.75Z" fill="#8B82FF"/>
<path d="M349.37 110.69C348.17 109.657 346.95 108.657 345.71 107.69" stroke="#263238" stroke-width="0.5" stroke-linecap="round" stroke-linejoin="round"/>
<path d="M378.28 89.92C376.35 95.79 374.21 103.5 374.15 108.92C374.05 118.83 374.48 139.53 374.48 139.53C368.073 130.028 360.653 121.25 352.35 113.35" stroke="#263238" stroke-width="0.5" stroke-linecap="round" stroke-linejoin="round"/>
<path d="M381.34 81.46C381.34 81.46 380.64 83.17 379.69 85.83" stroke="#263238" stroke-width="0.5" stroke-linecap="round" stroke-linejoin="round"/>
<path d="M374.48 139.54C374.48 139.54 346.21 134.9 338.35 138.54C330.49 142.18 328.16 151.76 328.16 151.76" stroke="#263238" stroke-width="0.5" stroke-linecap="round" stroke-linejoin="round"/>
<path d="M413.77 132.18C419.61 131.86 421 133.04 421 133.04" stroke="#263238" stroke-width="0.5" stroke-linecap="round" stroke-linejoin="round"/>
<path d="M349.42 180.5C349.42 180.5 347.36 172.14 354.27 162.58C361.18 153.02 375.17 142.33 375.17 142.33C375.17 142.33 399.91 134.5 409.7 132.66" stroke="#263238" stroke-width="0.5" stroke-linecap="round" stroke-linejoin="round"/>
<path d="M382.14 133.58C378.31 138.46 375.14 142.33 375.14 142.33" stroke="#263238" stroke-width="0.5" stroke-linecap="round" stroke-linejoin="round"/>
<path d="M407.12 104C402.61 107.66 397.02 112.65 394.68 116.52C392.78 119.67 388.6 125.27 384.59 130.45" stroke="#263238" stroke-width="0.5" stroke-linecap="round" stroke-linejoin="round"/>
<path d="M413.6 99C413.6 99 412.02 100.13 409.75 101.9" stroke="#263238" stroke-width="0.5" stroke-linecap="round" stroke-linejoin="round"/>
<path d="M377.9 144.3C377.9 144.3 403.08 153.78 407.06 157.49C409.419 159.686 411.581 162.085 413.52 164.66" stroke="#263238" stroke-width="0.5" stroke-linecap="round" stroke-linejoin="round"/>
<path d="M376.62 153.89C376.45 158.59 376.53 164.62 377.71 168.72C379.176 173.646 381.076 178.431 383.39 183.02" stroke="#263238" stroke-width="0.5" stroke-linecap="round" stroke-linejoin="round"/>
<path d="M377.1 146.85C377.1 146.85 376.9 148.6 376.75 151.22" stroke="#263238" stroke-width="0.5" stroke-linecap="round" stroke-linejoin="round"/>
<path d="M366.64 266.89C371.44 270.66 371.75 278.13 370.42 284.82L374.01 285.55L375.37 281.16C376.73 276.78 375.7 270.32 371.97 266.65C368.24 262.98 354.97 256.52 351.09 253.13C350.09 252.25 347.33 250.18 343.76 247.64L343.05 247.75C343.05 247.75 360.41 262 366.64 266.89Z" fill="#8B82FF"/>
<path opacity="0.5" d="M366.64 266.89C371.44 270.66 371.75 278.13 370.42 284.82L374.01 285.55L375.37 281.16C376.73 276.78 375.7 270.32 371.97 266.65C368.24 262.98 354.97 256.52 351.09 253.13C350.09 252.25 347.33 250.18 343.76 247.64L343.05 247.75C343.05 247.75 360.41 262 366.64 266.89Z" fill="white"/>
<path d="M262.48 276.24C270.247 275.811 277.766 273.356 284.29 269.12C295.42 262 291.86 260.66 291.86 260.66C291.86 260.66 297.64 258.88 301.2 257.55C304.184 256.218 307.02 254.576 309.66 252.65C309.66 252.65 323.91 262 330.58 264.65C333.774 266.007 337.063 267.13 340.42 268.01L349.73 280.23C344.496 282.699 340.033 286.546 336.82 291.36C331.48 299.36 324.82 310.05 321.68 311.36C318.54 312.67 319.9 314.03 306.1 308.69C292.3 303.35 261.59 284.26 262.48 276.24Z" fill="#8B82FF"/>
<path opacity="0.5" d="M262.48 276.24C270.247 275.811 277.766 273.356 284.29 269.12C295.42 262 291.86 260.66 291.86 260.66C291.86 260.66 297.64 258.88 301.2 257.55C304.184 256.218 307.02 254.576 309.66 252.65C309.66 252.65 323.91 262 330.58 264.65C333.774 266.007 337.063 267.13 340.42 268.01L349.73 280.23C344.496 282.699 340.033 286.546 336.82 291.36C331.48 299.36 324.82 310.05 321.68 311.36C318.54 312.67 319.9 314.03 306.1 308.69C292.3 303.35 261.59 284.26 262.48 276.24Z" fill="white"/>
<path opacity="0.3" d="M387.21 363.33C385.29 357.92 384.95 329.54 385.38 309.33L396.61 311.76C398.56 312.182 400.597 311.88 402.34 310.91C402.764 310.674 403.166 310.399 403.54 310.09C403.906 309.791 404.241 309.456 404.54 309.09C405.604 307.913 406.3 306.449 406.54 304.88C406.581 304.602 406.608 304.321 406.62 304.04C406.697 302.418 406.289 300.81 405.45 299.42C405.178 298.968 404.863 298.543 404.51 298.15C403.229 296.729 401.493 295.799 399.6 295.52L386.04 293.52C386.16 291.76 386.3 290.39 386.44 289.52C386.683 288.201 386.783 286.86 386.74 285.52L387.67 282.52C389.04 278.13 388 271.67 384.27 268C380.54 264.33 367.27 257.87 363.39 254.48C359.51 251.09 330.46 230.4 325.25 231.62C320.04 232.84 313.88 240.27 308.63 244.38C303.38 248.49 284.47 264 284.47 264C284.53 263.35 274.75 267.3 272.37 271.13C272.191 271.301 272.052 271.511 271.964 271.742C271.876 271.974 271.84 272.223 271.86 272.47C272.14 273.56 272.681 274.565 273.437 275.398C274.194 276.231 275.142 276.867 276.2 277.25L267.72 276C267.24 275.929 266.75 275.997 266.307 276.196C265.864 276.394 265.487 276.715 265.22 277.12C262.22 276.67 256.1 276 251.68 277.21C251.68 277.21 258.89 280.74 264.28 281.92C264.422 282.337 264.67 282.71 265 283.003C265.329 283.296 265.729 283.498 266.16 283.59L277.41 286C277.204 286.653 277.05 287.322 276.95 288C276.87 288.618 276.957 289.246 277.2 289.82C277.25 290.2 277.32 290.59 277.41 291C279.01 297.8 287.65 306.06 293.95 311.52C300.25 316.98 306.28 326.33 310.02 337.17C313.76 348.01 316.1 358 324.42 369C325.836 370.859 327.376 372.62 329.03 374.27L406.6 423.27C406.6 423.27 390 371.28 387.21 363.33ZM286 278.05C285.87 278.25 285.74 278.45 285.63 278.66L283.49 278.34C284.332 278.303 285.171 278.206 286 278.05V278.05Z" fill="#0F0000"/>
<path d="M361.16 449.91L311.64 364.31C311.64 364.31 306.1 325.42 294.29 309.77C282.48 294.12 265.92 282.7 275.53 274.7C285.14 266.7 309.53 251.4 314.53 252.38C319.53 253.36 353.19 270.38 362.7 273.13C372.21 275.88 375.54 279.92 374.12 288.13C372.7 296.34 372.12 353.91 374.93 361.86C377.74 369.81 409 426.47 409 426.47" fill="white"/>
<path d="M375 361.88C372.17 353.93 372.77 296.38 374.19 288.15C375.06 283.15 374.14 279.66 371.11 277.15C371.218 281.711 370.476 286.252 368.92 290.54C366.25 298.11 364.92 303.45 364.92 303.45C364.92 303.45 364.48 330.6 366.26 344.45C368.04 358.3 376.94 382.73 385.4 396.09C391.66 405.97 400.59 414.87 404.82 418.84C396.12 403 377.12 368 375 361.88Z" fill="#8B82FF"/>
<path opacity="0.5" d="M375 361.88C372.17 353.93 372.77 296.38 374.19 288.15C375.06 283.15 374.14 279.66 371.11 277.15C371.218 281.711 370.476 286.252 368.92 290.54C366.25 298.11 364.92 303.45 364.92 303.45C364.92 303.45 364.48 330.6 366.26 344.45C368.04 358.3 376.94 382.73 385.4 396.09C391.66 405.97 400.59 414.87 404.82 418.84C396.12 403 377.12 368 375 361.88Z" fill="white"/>
<path d="M361.16 449.91L311.64 364.31C311.64 364.31 306.1 325.42 294.29 309.77C282.48 294.12 265.92 282.7 275.53 274.7C285.14 266.7 309.53 251.4 314.53 252.38C319.53 253.36 353.19 270.38 362.7 273.13C372.21 275.88 375.54 279.92 374.12 288.13C372.7 296.34 372.12 353.91 374.93 361.86C377.74 369.81 409 426.47 409 426.47" stroke="#263238" stroke-miterlimit="10" stroke-linecap="round"/>
<path d="M262.48 276.24C270.247 275.811 277.766 273.356 284.29 269.12C295.42 262 291.86 260.66 291.86 260.66C291.86 260.66 297.64 258.88 301.2 257.55C304.184 256.218 307.02 254.576 309.66 252.65C309.66 252.65 323.91 262 330.58 264.65C333.774 266.007 337.063 267.13 340.42 268.01L349.73 280.23C344.496 282.699 340.033 286.546 336.82 291.36C331.48 299.36 324.82 310.05 321.68 311.36C318.54 312.67 319.9 314.03 306.1 308.69C292.3 303.35 261.59 284.26 262.48 276.24Z" fill="#8B82FF"/>
<path opacity="0.5" d="M262.48 276.24C270.247 275.811 277.766 273.356 284.29 269.12C295.42 262 291.86 260.66 291.86 260.66C291.86 260.66 297.64 258.88 301.2 257.55C304.184 256.218 307.02 254.576 309.66 252.65C309.66 252.65 323.91 262 330.58 264.65C333.774 266.007 337.063 267.13 340.42 268.01L349.73 280.23C344.496 282.699 340.033 286.546 336.82 291.36C331.48 299.36 324.82 310.05 321.68 311.36C318.54 312.67 319.9 314.03 306.1 308.69C292.3 303.35 261.59 284.26 262.48 276.24Z" fill="white"/>
<path d="M287.14 280.35C287.14 280.35 297.84 279.03 305.38 265.3C305.38 265.3 314.26 269.06 323.5 266.65" stroke="#263238" stroke-miterlimit="10" stroke-linecap="round"/>
<path d="M316.15 270.42C316.15 270.42 310.99 284.08 321.87 302.15" stroke="#263238" stroke-miterlimit="10" stroke-linecap="round"/>
<path d="M304.72 271.67C304.72 271.67 310.11 278.3 310.99 284.08" stroke="#263238" stroke-miterlimit="10" stroke-linecap="round"/>
<path d="M314.81 308.54C314.81 308.54 323.81 302.85 328.6 296.93C333.39 291.01 335.55 284.77 343.1 282.28" stroke="#263238" stroke-miterlimit="10" stroke-linecap="round"/>
<path d="M305.38 265.3L303.19 262.71" stroke="#263238" stroke-miterlimit="10" stroke-linecap="round"/>
<path d="M254.78 276C254.78 276 245.48 274.12 239.42 275.78C239.42 275.78 248.34 280.15 253.75 280.78L254.78 276Z" fill="#F1B3E3" stroke="#263238" stroke-miterlimit="10" stroke-linecap="round"/>
<path d="M387.3 294.14L255.46 274.55C254.831 274.456 254.19 274.6 253.661 274.953C253.133 275.306 252.754 275.843 252.6 276.46L252 279C251.914 279.333 251.897 279.68 251.949 280.02C252.001 280.36 252.121 280.687 252.302 280.979C252.483 281.271 252.722 281.524 253.003 281.722C253.285 281.92 253.603 282.059 253.94 282.13L384.39 310.33C385.492 310.568 386.63 310.577 387.736 310.358C388.841 310.138 389.89 309.694 390.817 309.053C391.744 308.412 392.53 307.587 393.125 306.63C393.721 305.674 394.114 304.605 394.28 303.49C394.437 302.418 394.381 301.325 394.115 300.274C393.849 299.223 393.378 298.235 392.73 297.367C392.082 296.498 391.268 295.766 390.336 295.212C389.405 294.659 388.373 294.294 387.3 294.14V294.14Z" fill="#8B82FF" stroke="#263238" stroke-miterlimit="10" stroke-linecap="round"/>
<path d="M387.3 294.14L367.37 291.14C365.55 292.243 364.13 293.897 363.315 295.863C362.5 297.829 362.334 300.003 362.84 302.07C363.176 303.529 363.832 304.895 364.76 306.07L384.35 310.3C385.452 310.538 386.59 310.547 387.696 310.328C388.801 310.108 389.85 309.664 390.777 309.023C391.704 308.382 392.49 307.557 393.085 306.6C393.681 305.644 394.074 304.575 394.24 303.46V303.46C394.549 301.305 393.993 299.115 392.692 297.368C391.392 295.622 389.453 294.461 387.3 294.14Z" fill="#F1B3E3" stroke="#263238" stroke-miterlimit="10" stroke-linecap="round"/>
<path d="M333.94 306.44C333.94 306.44 322.6 309.1 317.53 307.9C312.46 306.7 302.11 292.14 295 287.35C287.89 282.56 283.56 281.42 276.12 280.3C268.68 279.18 263.54 282.77 265.12 289.58C266.7 296.39 275.35 304.64 281.66 310.1C287.97 315.56 293.99 324.9 297.73 335.75C301.47 346.6 303.81 356.57 312.13 367.53C320.45 378.49 330.83 383 334.32 383.61" fill="white"/>
<path d="M328.31 308.05L327.51 307.64C324.07 308.14 320.04 308.49 317.51 307.9C312.45 306.7 302.09 292.14 294.99 287.35C287.89 282.56 283.55 281.42 276.11 280.3C274.923 280.115 273.719 280.062 272.52 280.14C278.255 281.58 283.678 284.057 288.52 287.45C296.44 293.17 302.16 307.68 310.95 310.32C319.74 312.96 328.31 308.05 328.31 308.05Z" fill="#8B82FF"/>
<path opacity="0.5" d="M328.31 308.05L327.51 307.64C324.07 308.14 320.04 308.49 317.51 307.9C312.45 306.7 302.09 292.14 294.99 287.35C287.89 282.56 283.55 281.42 276.11 280.3C274.923 280.115 273.719 280.062 272.52 280.14C278.255 281.58 283.678 284.057 288.52 287.45C296.44 293.17 302.16 307.68 310.95 310.32C319.74 312.96 328.31 308.05 328.31 308.05Z" fill="white"/>
<path d="M333.94 306.44C333.94 306.44 322.6 309.1 317.53 307.9C312.46 306.7 302.11 292.14 295 287.35C287.89 282.56 283.56 281.42 276.12 280.3C268.68 279.18 263.54 282.77 265.12 289.58C266.7 296.39 275.35 304.64 281.66 310.1C287.97 315.56 293.99 324.9 297.73 335.75C301.47 346.6 303.81 356.57 312.13 367.53C320.45 378.49 330.83 383 334.32 383.61" stroke="#263238" stroke-miterlimit="10" stroke-linecap="round"/>
<path d="M270.84 294.46C270.84 294.46 271.38 288.59 279.42 283.12C279.42 283.12 274.05 279.59 270.37 280.22C266.69 280.85 265.24 282.86 264.68 286.58C264.12 290.3 270.84 294.46 270.84 294.46Z" fill="white" stroke="#263238" stroke-miterlimit="10" stroke-linecap="round"/>
<path d="M276.12 300.69C276.738 301.312 277.43 301.856 278.18 302.31" stroke="#263238" stroke-miterlimit="10" stroke-linecap="round"/>
<path d="M282 286.82C282 286.82 273.46 291.22 274.83 298.08" stroke="#263238" stroke-miterlimit="10" stroke-linecap="round"/>
<path d="M374 285.55L375.36 281.16C376.72 276.78 375.69 270.32 371.96 266.65C368.23 262.98 354.96 256.52 351.08 253.13C347.2 249.74 318.16 229 313 230.27C307.84 231.54 301.63 238.92 296.37 243.02C291.11 247.12 272.25 262.56 272.25 262.56C272.25 262.56 259 268.3 259.6 271C260.2 273.7 262.95 277.15 271.26 276.88C279.57 276.61 293.42 268.33 295.52 267.11C297.62 265.89 310.69 257.33 310.69 257.33C314.075 260.679 317.962 263.479 322.21 265.63C328.38 268.49 329.21 268.78 329.21 268.78C329.21 268.78 330.82 274.63 335.35 277.63" fill="white"/>
<path d="M374 285.55L375.36 281.16C376.72 276.78 375.69 270.32 371.96 266.65C368.23 262.98 354.96 256.52 351.08 253.13C347.2 249.74 318.16 229 313 230.27C307.84 231.54 301.63 238.92 296.37 243.02C291.11 247.12 272.25 262.56 272.25 262.56C272.25 262.56 259 268.3 259.6 271C260.2 273.7 262.95 277.15 271.26 276.88C279.57 276.61 293.42 268.33 295.52 267.11C297.62 265.89 310.69 257.33 310.69 257.33C314.075 260.679 317.962 263.479 322.21 265.63C328.38 268.49 329.21 268.78 329.21 268.78C329.21 268.78 330.82 274.63 335.35 277.63" stroke="#263238" stroke-miterlimit="10" stroke-linecap="round"/>
<path d="M259.6 271C259.6 271 260.94 271.64 263.78 270.5C266.62 269.36 272.14 263.28 272.2 262.5C272.26 261.72 260.05 266.85 259.6 271Z" fill="white" stroke="#263238" stroke-miterlimit="10" stroke-linecap="round"/>
<path d="M310.16 247.65C310.286 247.052 310.443 246.462 310.63 245.88" stroke="#263238" stroke-miterlimit="10" stroke-linecap="round"/>
<path d="M310.69 257.35C309.928 254.948 309.639 252.422 309.84 249.91" stroke="#263238" stroke-miterlimit="10" stroke-linecap="round"/>
</svg>
